<?xml version="1.0" encoding="UTF-8"?>
<svg version="1.1" xmlns="http://www.w3.org/2000/svg" width="373" height="369">
<path d="M0 0 C2.96175123 0.61277612 4.38058783 1.25372522 7 3 C7 3.66 7 4.32 7 5 C7.99 5.33 8.98 5.66 10 6 C10 6.66 10 7.32 10 8 C10.66 8 11.32 8 12 8 C13.80636736 9.58960328 14.91926148 10.83852297 16 13 C16.99 13.495 16.99 13.495 18 14 C18.804375 14.969375 19.60875 15.93875 20.4375 16.9375 C24.08494616 21.2981844 28.27342027 24.99043244 32.51171875 28.765625 C36.72003425 32.54452055 36.72003425 32.54452055 38 34 C38 34.66 38 35.32 38 36 C38.66 36 39.32 36 40 36 C46.61689282 41.86012209 50.6915105 50.60832872 53 59 C53.1953125 62.6484375 53.1953125 62.6484375 53.125 66.375 C53.10695313 67.62023437 53.08890625 68.86546875 53.0703125 70.1484375 C53.04710937 71.08945313 53.02390625 72.03046875 53 73 C52.34 73 51.68 73 51 73 C50.62875 74.85625 50.62875 74.85625 50.25 76.75 C49.15326683 81.72869519 47.56971629 86.48742278 45.90234375 91.30078125 C45.15852873 93.52578637 44.5262594 95.71592571 44 98 C43.34 98 42.68 98 42 98 C41.87625 98.680625 41.7525 99.36125 41.625 100.0625 C40.90899123 103.4277412 39.97054875 106.70013425 39 110 C38.34 110 37.68 110 37 110 C36.81824219 110.87011719 36.81824219 110.87011719 36.6328125 111.7578125 C34.70818505 120.72953737 34.70818505 120.72953737 33 125 C32.01 125.495 32.01 125.495 31 126 C31.04125 126.7425 31.0825 127.485 31.125 128.25 C30.99456907 131.11948044 30.53915977 132.60575147 29 135 C28.34 135.33 27.68 135.66 27 136 C26.1210206 138.17310535 26.1210206 138.17310535 25.4375 140.75 C25.18871094 141.61109375 24.93992187 142.4721875 24.68359375 143.359375 C24.02733561 145.89440646 23.48583324 148.42739732 23 151 C22.34 151 21.68 151 21 151 C20.896875 151.845625 20.79375 152.69125 20.6875 153.5625 C19.92894496 157.35527519 18.59793046 160.48455298 17 164 C16.32723284 165.6642135 15.65793165 167.32986582 15 169 C13 167 13 167 12.8046875 164.3984375 C12.82789063 163.40070313 12.85109375 162.40296875 12.875 161.375 C12.89304687 160.37210938 12.91109375 159.36921875 12.9296875 158.3359375 C12.95289063 157.56507813 12.97609375 156.79421875 13 156 C13.66 156 14.32 156 15 156 C16.5162613 147.85009554 16.89726713 139.10102949 15 131 C13.35 130.67 11.7 130.34 10 130 C10.061875 130.94875 10.12375 131.8975 10.1875 132.875 C10.17276187 140.18511304 7.15052324 147.0279155 4.109375 153.5546875 C2.31536264 157.50909502 0.74860594 161.55765636 -0.8515625 165.59375 C-2 168 -2 168 -4 169 C-3.938125 169.639375 -3.87625 170.27875 -3.8125 170.9375 C-4.11372228 175.85746397 -5.79798493 180.59596985 -8 185 C-12.9881377 182.88963405 -17.48507632 179.10074429 -21 175 C-21 174.34 -21 173.68 -21 173 C-21.66 173 -22.32 173 -23 173 C-23 172.34 -23 171.68 -23 171 C-23.66 171 -24.32 171 -25 171 C-26.5247281 167.50821653 -27.196313 165.69020451 -26.13671875 161.96484375 C-25.41935547 160.46630859 -25.41935547 160.46630859 -24.6875 158.9375 C-22.96067134 155.26148392 -21.62759525 152.02399305 -21 148 C-20.34 148 -19.68 148 -19 148 C-18.896875 147.360625 -18.79375 146.72125 -18.6875 146.0625 C-17.76096927 141.93522674 -16.38339371 137.99357051 -15 134 C-14.34 134 -13.68 134 -13 134 C-13.0825 133.34 -13.165 132.68 -13.25 132 C-12.89896359 127.78756306 -11.03039227 124.65289323 -9 121 C-10.86963998 118.73701563 -10.86963998 118.73701563 -13.8125 118.5625 C-18.07494613 119.14754163 -19.30395924 120.7210315 -22 124 C-24.92181717 128.32861803 -26.63849973 132.95020345 -28.3671875 137.84765625 C-28.61339844 138.53537109 -28.85960937 139.22308594 -29.11328125 139.93164062 C-29.62145508 141.35322434 -30.12145966 142.77775461 -30.61328125 144.20507812 C-32.10192697 148.31235193 -33.46341374 151.21873256 -37 154 C-39.4375 154.5625 -39.4375 154.5625 -42 154 C-44.3125 151.875 -44.3125 151.875 -47 149 C-48.33943763 148.00077953 -49.69468252 147.02250523 -51.0625 146.0625 C-54.69530864 143.41858445 -56.77951044 140.88585673 -59 137 C-58.34 137 -57.68 137 -57 137 C-57 136.01 -57 135.02 -57 134 C-55.68 134.33 -54.36 134.66 -53 135 C-52.62875 133.7934375 -52.62875 133.7934375 -52.25 132.5625 C-51.26206019 129.74687154 -50.18039898 127.14024032 -48.9375 124.4375 C-47.49503896 121.26620699 -46.64804188 118.42536422 -46 115 C-45.04987876 112.97582866 -44.05008653 110.97416268 -43 109 C-42.71125 108.29875 -42.4225 107.5975 -42.125 106.875 C-40.10711552 103.51185919 -37.74067027 101.48333809 -33.91796875 100.421875 C-28.36357312 99.5513394 -24.93229416 100.37643928 -20 103 C-20 103.66 -20 104.32 -20 105 C-19.46375 105.226875 -18.9275 105.45375 -18.375 105.6875 C-15.17539839 107.45570089 -12.70962777 109.53670203 -10 112 C-10 112.66 -10 113.32 -10 114 C-9.34 114 -8.68 114 -8 114 C-8 114.66 -8 115.32 -8 116 C-7.1646875 116.4021875 -7.1646875 116.4021875 -6.3125 116.8125 C-3.80287477 118.10122647 -1.40665764 119.52926478 1 121 C0.71125 120.278125 0.4225 119.55625 0.125 118.8125 C-0.61215858 116.96960354 -1.32168778 115.11535859 -2 113.25 C-2.78431361 110.84296517 -2.78431361 110.84296517 -5 110 C-5.33 109.01 -5.66 108.02 -6 107 C-8.00016466 105.79117904 -8.00016466 105.79117904 -10 105 C-10 104.01 -10 103.02 -10 102 C-10.8971875 101.9071875 -10.8971875 101.9071875 -11.8125 101.8125 C-14 101 -14 101 -15.2578125 98.8359375 C-17.43030662 95.29954573 -20.0959637 92.68666511 -23.0625 89.8125 C-23.60455078 89.27947266 -24.14660156 88.74644531 -24.70507812 88.19726562 C-26.13283628 86.79421528 -27.56609508 85.39676781 -29 84 C-31 82 -31 82 -31.3125 79.1875 C-30.9570285 75.56169067 -29.95208652 74.03657903 -28 71 C-26.90406845 68.3676154 -25.96296538 65.68331926 -25 63 C-24.33933281 61.33094605 -23.67561748 59.6630584 -23 58 C-22.34 58 -21.68 58 -21 58 C-20.34 58.99 -19.68 59.98 -19 61 C-18.01 61.66 -17.02 62.32 -16 63 C-15.360625 63.804375 -14.72125 64.60875 -14.0625 65.4375 C-11.68559108 68.39062926 -9.37688567 70.31155717 -6 72 C-6 72.66 -6 73.32 -6 74 C-5.01 74.495 -5.01 74.495 -4 75 C-4 75.66 -4 76.32 -4 77 C-3.34 77 -2.68 77 -2 77 C-2 77.66 -2 78.32 -2 79 C-1.34 79 -0.68 79 0 79 C1.3125 80.1875 1.3125 80.1875 3 82 C6.17832859 85.42874244 6.17832859 85.42874244 10 88 C10.97016665 89.03275804 11.90325395 90.10072306 12.8125 91.1875 C13.34101563 91.81398438 13.86953125 92.44046875 14.4140625 93.0859375 C15.41522086 94.29423207 16.41080123 95.50719035 17.3984375 96.7265625 C19.49008696 99.29992517 21.21318337 101.14212225 24 103 C24 103.66 24 104.32 24 105 C24.96761608 107.01586684 25.96567096 109.01753602 27 111 C27 107.79604584 26.25664978 105.90600261 25 103 C25.66 103 26.32 103 27 103 C26.38125 101.88625 25.7625 100.7725 25.125 99.625 C24.77695312 98.99851562 24.42890625 98.37203125 24.0703125 97.7265625 C22.99102726 95.8387386 22.99102726 95.8387386 21 94 C20.05620347 92.90121049 19.11938061 91.79641334 18.1875 90.6875 C16.35020197 88.52989819 14.50743862 86.50743862 12.5 84.5 C9.96816226 81.96816226 7.69860345 79.31640583 5.4296875 76.55078125 C3.88518193 74.75318225 3.88518193 74.75318225 1 73 C1 72.34 1 71.68 1 71 C-0.32 70.34 -1.64 69.68 -3 69 C-3 68.34 -3 67.68 -3 67 C-3.86625 66.62875 -3.86625 66.62875 -4.75 66.25 C-7.32939979 64.81700012 -9.06121592 63.21575324 -11 61 C-11 60.34 -11 59.68 -11 59 C-11.5775 58.773125 -12.155 58.54625 -12.75 58.3125 C-15.73759691 56.56973514 -17.21601425 54.97330958 -19 52 C-18.6756825 46.80468318 -17.23783535 42.88329958 -14.9375 38.25 C-12.63294832 33.82365951 -12.63294832 33.82365951 -12 29 C-7.73133091 29.47429657 -5.89066852 32.03521178 -3 35 C-2.01 35.33 -1.02 35.66 0 36 C0 36.99 0 37.98 0 39 C0.66 39 1.32 39 2 39 C3.5859375 40.609375 3.5859375 40.609375 5.375 42.75 C5.99761719 43.47960938 6.62023437 44.20921875 7.26171875 44.9609375 C7.83535156 45.63382813 8.40898437 46.30671875 9 47 C11.52065758 49.73671395 13.57234324 51.53100424 17 53 C17 53.66 17 54.32 17 55 C18.485 55.495 18.485 55.495 20 56 C21.01187895 57.65948148 22.0126546 59.32580562 23 61 C23.66 61 24.32 61 25 61 C25 61.66 25 62.32 25 63 C25.66 63.33 26.32 63.66 27 64 C28.625 65.4375 28.625 65.4375 30 67 C30 67.66 30 68.32 30 69 C31.485 69.495 31.485 69.495 33 70 C33 70.66 33 71.32 33 72 C34.485 72.495 34.485 72.495 36 73 C36.33 73.99 36.66 74.98 37 76 C37.66 75.67 38.32 75.34 39 75 C38.2368139 73.39218107 37.46412942 71.78886862 36.6875 70.1875 C36.25824219 69.29417969 35.82898438 68.40085937 35.38671875 67.48046875 C34.11021226 65.19714024 32.8456512 63.80235146 31 62 C31 61.34 31 60.68 31 60 C30.34 60 29.68 60 29 60 C27.44921875 58.42578125 27.44921875 58.42578125 25.6875 56.3125 C21.78091203 51.73069929 17.70832051 47.59343917 13.125 43.6875 C9.56905508 40.62226203 6.53231642 37.31341819 3.54296875 33.69921875 C1.91432017 31.76731446 1.91432017 31.76731446 -1 30 C-1 29.34 -1 28.68 -1 28 C-1.66 28 -2.32 28 -3 28 C-5.3125705 25.62265162 -6.89198168 23.1239961 -8 20 C-7.5549736 16.7179303 -6.45937035 13.95984973 -5 11 C-4.34 11 -3.68 11 -3 11 C-2.814375 9.39125 -2.814375 9.39125 -2.625 7.75 C-2.10356064 4.62136385 -1.59911746 2.66519576 0 0 Z M38 77 C38 81.08378077 38.80712589 84.12315913 40 88 C40.33 88 40.66 88 41 88 C41.08096803 86.54257537 41.13917774 85.08387193 41.1875 83.625 C41.23970703 82.40683594 41.23970703 82.40683594 41.29296875 81.1640625 C41.19628906 80.44992188 41.09960938 79.73578125 41 79 C40.01 78.34 39.02 77.68 38 77 Z M28 113 C27.67 113.66 27.34 114.32 27 115 C27.89163577 117.11683841 27.89163577 117.11683841 29 119 C29 117.02 29 115.04 29 113 C28.67 113 28.34 113 28 113 Z " fill="#211D1E" transform="translate(307,14)"/>
<path d="M0 0 C4.03438436 -0.05026066 8.06864203 -0.0861162 12.10327148 -0.10986328 C13.4695148 -0.11978563 14.83573769 -0.13332786 16.2019043 -0.15087891 C25.34346627 -0.26519046 34.01158969 0.29842707 43 2 C43 2.66 43 3.32 43 4 C43.86625 4.2475 44.7325 4.495 45.625 4.75 C49.22930787 6.08492884 51.97975979 7.62695412 55 10 C55 10.99 55 11.98 55 13 C55.66 13 56.32 13 57 13 C60.46935459 23.85572243 60.18864578 31.83890201 55 42 C54.01 42.495 54.01 42.495 53 43 C52.29289322 44.64991582 51.63437344 46.3207762 51 48 C45.95890411 58.52054795 45.95890411 58.52054795 43 60 C42.63678515 61.66041075 42.31323028 63.32943851 42 65 C41.23949196 67.22019284 40.44296166 69.42289201 39.62109375 71.62109375 C38.82804308 74.65862744 38.55906371 76.87261853 39 80 C41.29111384 82.43042642 41.29111384 82.43042642 44.3125 84.4375 C52.1856896 90.57126399 52.1856896 90.57126399 53 96 C52.02693554 100.4793582 50.6001191 104.7098256 49 109 C48.67 109.99 48.34 110.98 48 112 C47.34 112 46.68 112 46 112 C45.67 113.98 45.34 115.96 45 118 C41.95106884 116.87076624 40.35458426 115.3656342 38.375 112.875 C37.59125 111.92625 36.8075 110.9775 36 110 C35.34 110 34.68 110 34 110 C32.62437146 108.71034824 31.29233607 107.37310707 30 106 C29.34 105.34 28.68 104.68 28 104 C25.40952686 98.81905371 25.59529645 94.76335119 26.875 89.1875 C28 86 28 86 30 85 C29.67 84.01 29.34 83.02 29 82 C29.66 82 30.32 82 31 82 C31.10957031 81.43152344 31.21914062 80.86304688 31.33203125 80.27734375 C32.37578389 75.19435325 33.8089769 70.7326099 36 66 C37.44534451 62.69831255 38.8592028 59.42239159 40 56 C40.66 56 41.32 56 42 56 C42.2578125 55.12472656 42.515625 54.24945313 42.78125 53.34765625 C44.00861411 49.97633881 45.50562213 47.40793992 47.5 44.4375 C52.38605346 37.13947523 55.89051246 29.01925207 54.3125 20.125 C53.13304208 17.31676685 51.90652191 15.33982235 50 13 C50 12.34 50 11.68 50 11 C48.3369416 10.32438252 46.66905395 9.66066719 45 9 C43.845 8.505 42.69 8.01 41.5 7.5 C32.79471017 4.27642463 23.56128485 3.74713967 14.36328125 4.02734375 C12 4 12 4 10 3 C9.67 3.66 9.34 4.32 9 5 C6.69140625 5.23828125 6.69140625 5.23828125 3.5625 5.3125 C-6.87962644 5.9369461 -17.38256219 8.90226815 -27 13 C-27.57766113 13.24113525 -28.15532227 13.48227051 -28.75048828 13.73071289 C-41.80022823 18.85020097 -41.80022823 18.85020097 -53 27 C-55.37988242 28.99395554 -57.67985212 30.81403951 -60.3671875 32.375 C-63.10618123 34.06553619 -65.40659704 35.92790948 -67.8125 38.0625 C-68.60269531 38.75472656 -69.39289063 39.44695312 -70.20703125 40.16015625 C-72.23264158 41.81055701 -72.23264158 41.81055701 -72 44 C-73.051875 44.5878125 -73.051875 44.5878125 -74.125 45.1875 C-77.920433 47.58027298 -80.25608577 50.48597777 -83 54 C-83.91265625 55.15822266 -83.91265625 55.15822266 -84.84375 56.33984375 C-94.16658785 68.64081036 -100.61707426 81.25110703 -105 96 C-105.53597453 97.48123871 -106.07680845 98.96073908 -106.625 100.4375 C-112.00071804 116.80900495 -113.06424323 134.98629002 -111 152 C-110.88785156 153.01964844 -110.77570313 154.03929687 -110.66015625 155.08984375 C-108.15562489 174.38666158 -101.19475629 194.06512168 -90 210 C-89.46890625 210.8146875 -88.9378125 211.629375 -88.390625 212.46875 C-85.06021988 217.48021675 -81.36046056 222.00072572 -77.3125 226.4375 C-76.84875977 226.94595459 -76.38501953 227.45440918 -75.90722656 227.97827148 C-73.93297168 230.09643804 -72.00025018 231.99981519 -69.66796875 233.72265625 C-69.11753906 234.14417969 -68.56710938 234.56570313 -68 235 C-68 235.66 -68 236.32 -68 237 C-67.34 237 -66.68 237 -66 237 C-64.824375 238.2065625 -64.824375 238.2065625 -63.625 239.4375 C-61.18633325 241.81810326 -60.2727674 242.63635918 -57 243 C-57 243.99 -57 244.98 -57 246 C-55.68 246.33 -54.36 246.66 -53 247 C-53 247.66 -53 248.32 -53 249 C-51.92999756 249.41451416 -51.92999756 249.41451416 -50.83837891 249.83740234 C-48.02496015 250.98977634 -45.3152617 252.26300115 -42.5859375 253.6015625 C-41.07386719 254.33632813 -41.07386719 254.33632813 -39.53125 255.0859375 C-37.4176914 256.1165589 -35.30572133 257.15044406 -33.1953125 258.1875 C-32.18984375 258.67476563 -31.184375 259.16203125 -30.1484375 259.6640625 C-28.77437744 260.33622803 -28.77437744 260.33622803 -27.37255859 261.02197266 C-24.965442 262.19055672 -24.965442 262.19055672 -22 262 C-22 262.66 -22 263.32 -22 264 C-15.67572401 265.35991738 -9.43974581 266.37679879 -3 267 C-3 267.66 -3 268.32 -3 269 C1.16656568 269.16925548 5.3332663 269.33493667 9.5 269.5 C10.67304688 269.54769531 11.84609375 269.59539062 13.0546875 269.64453125 C16.36951169 269.7748895 19.68435462 269.89269414 23 270 C23.7638501 270.02626465 24.5277002 270.0525293 25.31469727 270.07958984 C30.31871779 270.17506985 35.03280521 269.50207114 39.9375 268.625 C40.72656738 268.48924561 41.51563477 268.35349121 42.32861328 268.21362305 C46.36815788 267.50780884 50.37879998 266.73674593 54.375 265.8125 C58 265 58 265 62 265 C62.33 264.34 62.66 263.68 63 263 C64.98248715 262.28293018 66.98415349 261.61709587 69 261 C69.66 260.67 70.32 260.34 71 260 C71.66 260.33 72.32 260.66 73 261 C73.33 260.34 73.66 259.68 74 259 C75.6796875 258.140625 75.6796875 258.140625 77.875 257.25 C88.26075729 252.88090986 88.26075729 252.88090986 97 246 C97.7425 245.566875 98.485 245.13375 99.25 244.6875 C102.3081831 242.81088764 104.80411094 240.6175397 107.44921875 238.20703125 C109 237 109 237 111 237 C111 236.34 111 235.68 111 235 C112.98260426 233.31267723 114.9832342 231.64633943 117 230 C117.33 229.34 117.66 228.68 118 228 C118.66 228 119.32 228 120 228 C120.23976563 227.44828125 120.47953125 226.8965625 120.7265625 226.328125 C122.29158372 223.46692057 124.24901714 221.22207309 126.375 218.75 C130.06659576 214.32956591 132.59322091 210.19864284 135 205 C135.66 204.67 136.32 204.34 137 204 C137.34740836 202.67026457 137.67751743 201.33599921 138 200 C138.88798381 198.23527268 139.80876866 196.48691144 140.75 194.75 C145.87759399 184.60628145 150.92102865 172.56661459 149 161 C148.37561431 159.64635133 147.71422152 158.30847615 147 157 C146.855625 156.319375 146.71125 155.63875 146.5625 154.9375 C145.87245745 152.56068676 144.76680824 151.69613591 143 150 C142.5359375 149.0409375 142.5359375 149.0409375 142.0625 148.0625 C141.04404962 145.82816681 141.04404962 145.82816681 138.875 143.875 C138.25625 143.25625 137.6375 142.6375 137 142 C137 141.34 137 140.68 137 140 C136.01 139.67 135.02 139.34 134 139 C131.8125 137.0625 131.8125 137.0625 130 135 C130 134.34 130 133.68 130 133 C129.34 133 128.68 133 128 133 C125.79144303 131.06751265 124.22650583 129.49548151 123 126.8125 C122.14390805 124.78597843 122.14390805 124.78597843 119.875 124.25 C119.25625 124.1675 118.6375 124.085 118 124 C118 123.01 118 122.02 118 121 C117.01 120.67 116.02 120.34 115 120 C115 119.34 115 118.68 115 118 C113.35 117.34 111.7 116.68 110 116 C110 115.34 110 114.68 110 114 C109.01 113.67 108.02 113.34 107 113 C107 112.34 107 111.68 107 111 C106.34 111 105.68 111 105 111 C103.03797328 108.45447091 101.72375678 106.14784625 101 103 C102.09296883 99.02504493 104.06379482 95.62054627 106 92 C106.57000032 90.46858284 107.11578521 88.92768773 107.625 87.375 C108.07875 86.26125 108.5325 85.1475 109 84 C109.99 83.67 110.98 83.34 112 83 C112.226875 83.639375 112.45375 84.27875 112.6875 84.9375 C113.85250896 87.27193661 113.85250896 87.27193661 116.625 87.75 C117.40875 87.8325 118.1925 87.915 119 88 C119.33 88.99 119.66 89.98 120 91 C120.99 91.33 121.98 91.66 123 92 C123.33 92.99 123.66 93.98 124 95 C126.51360234 97.72905397 129.14945216 100.12454347 132 102.5 C134.84091034 104.86742529 137.42294641 107.35136159 140 110 C140.66 110.66 141.32 111.32 142 112 C143.50007269 113.7716736 144.98392502 115.55604248 146.46484375 117.34375 C148.09533304 119.23194523 148.09533304 119.23194523 151 121 C151 121.66 151 122.32 151 123 C151.99 123.33 152.98 123.66 154 124 C155.53515625 126.4765625 155.53515625 126.4765625 157.0625 129.625 C157.56910156 130.64851562 158.07570313 131.67203125 158.59765625 132.7265625 C161.56307711 139.64863125 162.22001468 145.05336785 161.625 152.4375 C161.56828125 153.26443359 161.5115625 154.09136719 161.453125 154.94335938 C161.31303232 156.96302888 161.15805019 158.98165637 161 161 C160.34 161 159.68 161 159 161 C158.690625 162.7015625 158.690625 162.7015625 158.375 164.4375 C155.3033955 177.97374328 149.77154348 190.14347874 143.01464844 202.18798828 C142.12197668 203.78216772 141.25066188 205.38826652 140.3828125 206.99609375 C137.29594948 212.70405052 137.29594948 212.70405052 135 215 C134.06971754 216.21889418 133.15475642 217.44954027 132.25 218.6875 C129.77281512 222.02054924 127.18472208 225.20100628 124.44921875 228.32421875 C123.00389613 229.99549477 121.62866588 231.71113539 120.25 233.4375 C119.5075 234.283125 118.765 235.12875 118 236 C117.34 236 116.68 236 116 236 C116 236.66 116 237.32 116 238 C115.34 238 114.68 238 114 238 C113.67 238.66 113.34 239.32 113 240 C107.4047619 245 107.4047619 245 105 245 C105 245.66 105 246.32 105 247 C102.89843714 248.42077489 100.8129229 249.72601958 98.625 251 C94.04511537 253.63354122 94.04511537 253.63354122 90 257 C88.34750513 257.70105843 86.67632417 258.35800351 85 259 C82.7223713 260.02086572 80.45176195 261.05594988 78.18359375 262.09765625 C76 263 76 263 73.78515625 263.49609375 C73.19605469 263.66238281 72.60695312 263.82867187 72 264 C71.67 264.66 71.34 265.32 71 266 C43.36105804 276.88549099 10.70423844 276.4949559 -17.57421875 268.90234375 C-20.37648939 268.16423141 -23.15236606 267.52814626 -26 267 C-26 266.34 -26 265.68 -26 265 C-26.804375 264.9175 -27.60875 264.835 -28.4375 264.75 C-32.91471471 263.80742848 -36.99940904 262.23190864 -41 260 C-41.33 259.34 -41.66 258.68 -42 258 C-43.32148827 257.62243192 -44.65835921 257.2981424 -46 257 C-49.77511648 255.65174412 -52.13844148 254.72311704 -54 251 C-54.928125 250.71125 -55.85625 250.4225 -56.8125 250.125 C-60.24224121 248.9145031 -61.59725186 247.65130829 -64 245 C-64.99 244.34 -65.98 243.68 -67 243 C-67 242.34 -67 241.68 -67 241 C-67.556875 240.95875 -68.11375 240.9175 -68.6875 240.875 C-71.58355338 239.77919602 -72.85851661 237.99165849 -74.73046875 235.59375 C-76.09029436 233.82531994 -76.09029436 233.82531994 -78.25 231.75 C-80.77921678 229.22078322 -83.21186894 226.63960614 -85.625 224 C-86.38039063 223.175 -87.13578125 222.35 -87.9140625 221.5 C-90.44100941 218.4714494 -92.34302273 215.35260026 -94.0625 211.8125 C-94.97608662 209.82177761 -94.97608662 209.82177761 -97 208 C-97.74848506 206.68878529 -98.45377483 205.35239442 -99.125 204 C-99.47820312 203.29875 -99.83140625 202.5975 -100.1953125 201.875 C-101 200 -101 200 -101 198 C-101.66 197.67 -102.32 197.34 -103 197 C-103.63385922 194.95756472 -104.01826504 192.90867481 -104.4375 190.8125 C-104.623125 190.214375 -104.80875 189.61625 -105 189 C-105.66 188.67 -106.32 188.34 -107 188 C-107.75679435 186.03233469 -108.3974699 184.02024799 -109 182 C-109.23847656 181.22785156 -109.47695312 180.45570313 -109.72265625 179.66015625 C-110.50408752 177.11166935 -111.27343678 174.56476815 -112 172 C-112.33902344 170.80503906 -112.67804688 169.61007813 -113.02734375 168.37890625 C-114.29462987 163.24947223 -114.65658067 158.06827285 -115.0625 152.8125 C-115.21755916 150.88130864 -115.37503006 148.95030908 -115.53515625 147.01953125 C-115.600979 146.17495361 -115.66680176 145.33037598 -115.73461914 144.46020508 C-115.95896084 141.97292877 -115.95896084 141.97292877 -116.55029297 139.46337891 C-117.00506697 136.97224446 -116.96471412 135.06929316 -116.66015625 132.56640625 C-116.56669922 131.75236328 -116.47324219 130.93832031 -116.37695312 130.09960938 C-116.27318359 129.26236328 -116.16941406 128.42511719 -116.0625 127.5625 C-115.4371738 122.34606921 -114.85441673 117.2666889 -115 112 C-114.34 112 -113.68 112 -113 112 C-113.19078125 111.42636719 -113.3815625 110.85273438 -113.578125 110.26171875 C-114.07435728 107.60136235 -113.6854766 106.33003263 -112.75 103.8125 C-112.46253906 103.01714844 -112.17507812 102.22179687 -111.87890625 101.40234375 C-111.58886719 100.60957031 -111.29882812 99.81679687 -111 99 C-110.55938029 97.62599653 -110.12188535 96.25098714 -109.6875 94.875 C-100.61801897 67.80900948 -100.61801897 67.80900948 -95 65 C-94.27306096 63.02111039 -93.60183749 61.02045442 -93 59 C-92.34 59 -91.68 59 -91 59 C-90.731875 58.443125 -90.46375 57.88625 -90.1875 57.3125 C-88.89100504 54.78774666 -87.57523677 52.36285516 -86 50 C-85.34 50 -84.68 50 -84 50 C-83.773125 49.443125 -83.54625 48.88625 -83.3125 48.3125 C-81.64333462 45.37158957 -79.3864325 43.3864325 -77 41 C-76.505 40.13375 -76.01 39.2675 -75.5 38.375 C-73.14139544 34.64054278 -70.09743262 33.36581087 -66 32 C-66 31.34 -66 30.68 -66 30 C-64.0234375 28.44921875 -64.0234375 28.44921875 -61.375 26.6875 C-58.34578872 24.63669405 -55.43148435 22.60739171 -52.6875 20.1875 C-50.09736267 18.07924869 -48.10468158 17.11450108 -45 16 C-44.2575 15.54625 -43.515 15.0925 -42.75 14.625 C-35.50634414 10.3446579 -26.53776158 6 -18 6 C-17.67 5.34 -17.34 4.68 -17 4 C-11.48328169 2.47749852 -5.71937774 1.69084445 0 2 C0 1.34 0 0.68 0 0 Z " fill="#0A0A0A" transform="translate(139,78)"/>
<path d="M0 0 C4.1869344 3.51123317 8.13390994 7.13390994 12 11 C12.99 11.66 13.98 12.32 15 13 C15 13.66 15 14.32 15 15 C15.60070312 15.26167969 16.20140625 15.52335938 16.8203125 15.79296875 C19.13404277 17.07422799 20.2545833 18.24807082 21.875 20.3125 C23.8189149 22.68348711 25.72542479 24.716247 28.125 26.625 C30.88033027 28.9011424 32.83093569 31.1802164 35 34 C35.721875 34.680625 36.44375 35.36125 37.1875 36.0625 C39.20698065 38.22125518 39.83240183 39.06703209 40 42 C37.98553531 51.33979082 33.16037987 59.80870356 28.81787109 68.23999023 C26.85469122 72.09681083 25.3368211 75.87194594 24 80 C22.625 81.5 22.625 81.5 21 83 C20.38125 84.03125 19.7625 85.0625 19.125 86.125 C17 89 17 89 14.8125 90 C5.99130336 90 0.40819978 86.96198084 -6 81 C-11 75.86013986 -11 75.86013986 -11 73 C-11.66 73 -12.32 73 -13 73 C-14.25664978 70.09399739 -15 68.20395416 -15 65 C-15.66 64.67 -16.32 64.34 -17 64 C-18.42720606 56.43580786 -19.88467869 46.89431031 -16 40 C-13.15660629 33.11023831 -10.57297023 26.29286197 -9 19 C-8.34 19 -7.68 19 -7 19 C-7.0825 18.319375 -7.165 17.63875 -7.25 16.9375 C-6.96918378 13.63790943 -5.81152204 11.63542715 -4.08984375 8.84765625 C-2.41955988 6.01595636 -1.24118572 3.04090502 0 0 Z M-5 26 C-7.94076132 31.88152265 -6.82121211 41.44259204 -4.87109375 47.515625 C-2.09324314 53.28891243 1.03337562 57.93639824 6 62 C6.66 62 7.32 62 8 62 C8 62.66 8 63.32 8 64 C12.53629227 66.6553906 15.74629229 67.4956328 21 67 C21.99 66.34 22.98 65.68 24 65 C24 64.01 24 63.02 24 62 C25.485 61.505 25.485 61.505 27 61 C27.73323796 58.98491642 27.73323796 58.98491642 28 57 C27.34 57 26.68 57 26 57 C25.34 55.68 24.68 54.36 24 53 C23.34 53 22.68 53 22 53 C22 52.34 22 51.68 22 51 C20.66666667 49.33333333 20.66666667 49.33333333 19 48 C18.34 48 17.68 48 17 48 C16.74992187 47.41089844 16.49984375 46.82179688 16.2421875 46.21484375 C14.83561753 43.70690295 13.34445666 42.37575422 11.125 40.5625 C7.99698022 37.93315004 5.5325627 35.2144065 3 32 C2.34 32 1.68 32 1 32 C1 31.34 1 30.68 1 30 C0.34 30 -0.32 30 -1 30 C-1.66 28.68 -2.32 27.36 -3 26 C-3.66 26 -4.32 26 -5 26 Z " fill="#201C1D" transform="translate(236,189)"/>
<path d="M0 0 C0.99 0.66 1.98 1.32 3 2 C3 2.66 3 3.32 3 4 C4.65 4.33 6.3 4.66 8 5 C8.33 5.99 8.66 6.98 9 8 C9.99 8.33 10.98 8.66 12 9 C12.33 9.99 12.66 10.98 13 12 C15.51360234 14.72905397 18.14945216 17.12454347 21 19.5 C23.84091034 21.86742529 26.42294641 24.35136159 29 27 C29.66 27.66 30.32 28.32 31 29 C32.50007269 30.7716736 33.98392502 32.55604248 35.46484375 34.34375 C37.09533304 36.23194523 37.09533304 36.23194523 40 38 C40 38.66 40 39.32 40 40 C40.99 40.33 41.98 40.66 43 41 C49.70649033 51.8191218 51.39003552 60.50846457 50 73 C49.34 73 48.68 73 48 73 C47.9175 73.969375 47.835 74.93875 47.75 75.9375 C47.1000875 80.67119101 45.07694677 84.73984407 43 89 C42.01 89 41.02 89 40 89 C39.89042969 87.87980469 39.78085937 86.75960937 39.66796875 85.60546875 C39.50850107 84.13273778 39.34830683 82.66008535 39.1875 81.1875 C39.11724609 80.44951172 39.04699219 79.71152344 38.97460938 78.95117188 C38.5283906 74.72710881 38.5283906 74.72710881 36.5234375 71.078125 C36.02070313 70.72234375 35.51796875 70.3665625 35 70 C33.25527206 68.3948503 32.1002452 67.20717342 31.0625 65.0625 C30.04404962 62.82816681 30.04404962 62.82816681 27.875 60.875 C27.25625 60.25625 26.6375 59.6375 26 59 C26 58.34 26 57.68 26 57 C25.01 56.67 24.02 56.34 23 56 C20.8125 54.0625 20.8125 54.0625 19 52 C19 51.34 19 50.68 19 50 C18.34 50 17.68 50 17 50 C14.79144303 48.06751265 13.22650583 46.49548151 12 43.8125 C11.14390805 41.78597843 11.14390805 41.78597843 8.875 41.25 C8.25625 41.1675 7.6375 41.085 7 41 C7 40.01 7 39.02 7 38 C5.515 37.505 5.515 37.505 4 37 C4 36.34 4 35.68 4 35 C2.35 34.34 0.7 33.68 -1 33 C-1 32.34 -1 31.68 -1 31 C-1.99 30.67 -2.98 30.34 -4 30 C-4 29.34 -4 28.68 -4 28 C-4.66 28 -5.32 28 -6 28 C-7.96202672 25.45447091 -9.27624322 23.14784625 -10 20 C-8.90723351 16.02578083 -6.94006497 12.61795899 -5 9 C-4.40826597 7.4693161 -3.84146672 5.92849173 -3.3125 4.375 C-2 1 -2 1 0 0 Z " fill="#201C1E" transform="translate(250,161)"/>
<path d="M0 0 C4.03438436 -0.05026066 8.06864203 -0.0861162 12.10327148 -0.10986328 C13.4695148 -0.11978563 14.83573769 -0.13332786 16.2019043 -0.15087891 C25.34346627 -0.26519046 34.01158969 0.29842707 43 2 C43 2.66 43 3.32 43 4 C43.86625 4.2475 44.7325 4.495 45.625 4.75 C49.22930787 6.08492884 51.97975979 7.62695412 55 10 C55 10.99 55 11.98 55 13 C55.66 13 56.32 13 57 13 C60.46935459 23.85572243 60.18864578 31.83890201 55 42 C54.01 42.495 54.01 42.495 53 43 C52.29289322 44.64991582 51.63437344 46.3207762 51 48 C45.95890411 58.52054795 45.95890411 58.52054795 43 60 C42.63678515 61.66041075 42.31323028 63.32943851 42 65 C41.23949196 67.22019284 40.44296166 69.42289201 39.62109375 71.62109375 C38.82804308 74.65862744 38.55906371 76.87261853 39 80 C41.29111384 82.43042642 41.29111384 82.43042642 44.3125 84.4375 C52.1856896 90.57126399 52.1856896 90.57126399 53 96 C52.02693554 100.4793582 50.6001191 104.7098256 49 109 C48.67 109.99 48.34 110.98 48 112 C47.34 112 46.68 112 46 112 C45.67 113.98 45.34 115.96 45 118 C41.95106884 116.87076624 40.35458426 115.3656342 38.375 112.875 C37.59125 111.92625 36.8075 110.9775 36 110 C35.34 110 34.68 110 34 110 C32.62437146 108.71034824 31.29233607 107.37310707 30 106 C29.34 105.34 28.68 104.68 28 104 C25.40952686 98.81905371 25.59529645 94.76335119 26.875 89.1875 C28 86 28 86 30 85 C29.67 84.01 29.34 83.02 29 82 C29.66 82 30.32 82 31 82 C31.16435547 81.14728516 31.16435547 81.14728516 31.33203125 80.27734375 C32.37578389 75.19435325 33.8089769 70.7326099 36 66 C37.44534451 62.69831255 38.8592028 59.42239159 40 56 C40.66 56 41.32 56 42 56 C42.2578125 55.12472656 42.515625 54.24945313 42.78125 53.34765625 C44.00861411 49.97633881 45.50562213 47.40793992 47.5 44.4375 C52.38605346 37.13947523 55.89051246 29.01925207 54.3125 20.125 C53.13304208 17.31676685 51.90652191 15.33982235 50 13 C50 12.34 50 11.68 50 11 C48.3369416 10.32438252 46.66905395 9.66066719 45 9 C43.845 8.505 42.69 8.01 41.5 7.5 C32.79471017 4.27642463 23.56128485 3.74713967 14.36328125 4.02734375 C12 4 12 4 10 3 C9.67 3.66 9.34 4.32 9 5 C6.69140625 5.23828125 6.69140625 5.23828125 3.5625 5.3125 C-6.87962644 5.9369461 -17.38256219 8.90226815 -27 13 C-27.8664917 13.36170288 -27.8664917 13.36170288 -28.75048828 13.73071289 C-41.80022823 18.85020097 -41.80022823 18.85020097 -53 27 C-55.37988242 28.99395554 -57.67985212 30.81403951 -60.3671875 32.375 C-63.10618123 34.06553619 -65.40659704 35.92790948 -67.8125 38.0625 C-68.60269531 38.75472656 -69.39289063 39.44695312 -70.20703125 40.16015625 C-72.23264158 41.81055701 -72.23264158 41.81055701 -72 44 C-72.70125 44.391875 -73.4025 44.78375 -74.125 45.1875 C-77.29802435 47.18788492 -79.15793697 49.35063466 -81.515625 52.21875 C-86.57142857 58.28571429 -86.57142857 58.28571429 -90 60 C-89.43697042 56.05879291 -88.3208055 53.2491277 -86 50 C-85.34 50 -84.68 50 -84 50 C-83.773125 49.443125 -83.54625 48.88625 -83.3125 48.3125 C-81.64333462 45.37158957 -79.3864325 43.3864325 -77 41 C-76.505 40.13375 -76.01 39.2675 -75.5 38.375 C-73.14139544 34.64054278 -70.09743262 33.36581087 -66 32 C-66 31.34 -66 30.68 -66 30 C-64.0234375 28.44921875 -64.0234375 28.44921875 -61.375 26.6875 C-58.34578872 24.63669405 -55.43148435 22.60739171 -52.6875 20.1875 C-50.09736267 18.07924869 -48.10468158 17.11450108 -45 16 C-44.2575 15.54625 -43.515 15.0925 -42.75 14.625 C-35.50634414 10.3446579 -26.53776158 6 -18 6 C-17.67 5.34 -17.34 4.68 -17 4 C-11.48328169 2.47749852 -5.71937774 1.69084445 0 2 C0 1.34 0 0.68 0 0 Z " fill="#0D0C0C" transform="translate(139,78)"/>
<path d="M0 0 C3.3 0.33 6.6 0.66 10 1 C10.625 3.375 10.625 3.375 11 6 C10.34 6.66 9.68 7.32 9 8 C9.78375 8.825 10.5675 9.65 11.375 10.5 C14.41421599 14.11770312 15.21614805 17.3752735 16 22 C15.67 22.33 15.34 22.66 15 23 C16.98 23 18.96 23 21 23 C21.20970559 18.85906302 21.20970559 18.85906302 20 15 C20.66 15 21.32 15 22 15 C22 14.01 22 13.02 22 12 C24.475 12.495 24.475 12.495 27 13 C27.495 17.455 27.495 17.455 28 22 C29.32 22.33 30.64 22.66 32 23 C33.90318884 20.14521674 34.4619099 18.58058692 35.125 15.3125 C35.29257813 14.50425781 35.46015625 13.69601562 35.6328125 12.86328125 C35.75398438 12.24839844 35.87515625 11.63351562 36 11 C36.66 11 37.32 11 38 11 C38.33 10.01 38.66 9.02 39 8 C42.465 7.505 42.465 7.505 46 7 C46 7.66 46 8.32 46 9 C46.598125 9.061875 47.19625 9.12375 47.8125 9.1875 C50.9771913 10.36295677 51.59330689 11.98565762 53 15 C54.28 20.44 54.28 20.44 53 23 C55.38564077 22.42415568 57.66682784 21.77772405 60 21 C60.33 14.07 60.66 7.14 61 0 C62.32 0 63.64 0 65 0 C66.42727587 4.28182762 66.22447769 8.38945436 66.25 12.875 C66.270625 13.77347656 66.29125 14.67195313 66.3125 15.59765625 C66.34151475 20.5084022 66.33944968 24.08963738 63 28 C60.08511022 29.36441649 58.08735008 30.15990442 54.875 29.6875 C54.25625 29.460625 53.6375 29.23375 53 29 C50.35700406 28.06216273 49.46626279 27.78058222 46.875 29 C43.13569522 30.30062775 40.27021148 29.75758103 36.40234375 29.19140625 C34.08461712 28.86848161 34.08461712 28.86848161 32.24609375 29.48681641 C27.02055797 30.68073773 21.38610266 29.97073303 16.0625 29.8125 C14.78697266 29.79380859 13.51144531 29.77511719 12.19726562 29.75585938 C10.96814453 29.71912109 9.73902344 29.68238281 8.47265625 29.64453125 C7.35125244 29.61721924 6.22984863 29.58990723 5.07446289 29.56176758 C1.37093107 28.88505617 -0.31252685 27.58761405 -3 25 C-5.71037743 20.56483694 -4.83280223 16.91353313 -4 12 C-3.34 12 -2.68 12 -2 12 C-2 11.34 -2 10.68 -2 10 C-0.68 9.67 0.64 9.34 2 9 C2 8.01 2 7.02 2 6 C1.01 5.67 0.02 5.34 -1 5 C-0.67 3.35 -0.34 1.7 0 0 Z M4 5 C3.67 5.99 3.34 6.98 3 8 C4.65 7.67 6.3 7.34 8 7 C6.68 6.34 5.36 5.68 4 5 Z M40.6875 14.625 C38.7113553 16.87320648 38.7113553 16.87320648 39.1875 19.625 C39.93353681 21.97842556 39.93353681 21.97842556 41 24 C42.65 24 44.3 24 46 24 C47.80411967 21.24075815 48.0127245 20.11027897 47.625 16.75 C47.41875 15.8425 47.2125 14.935 47 14 C44.05970359 12.73987297 43.37708903 12.73501852 40.6875 14.625 Z M1.8125 14.75 C-0.2303289 16.78650196 -0.2303289 16.78650196 0.0625 19.0625 C1.15037946 21.31078421 1.95808454 22.54148896 4 24 C6.62570704 24.25069913 6.62570704 24.25069913 9 24 C8.814375 22.88625 8.62875 21.7725 8.4375 20.625 C8 17 8 17 9 15 C8.34 15 7.68 15 7 15 C6.67 14.34 6.34 13.68 6 13 C3.79339513 12.79176832 3.79339513 12.79176832 1.8125 14.75 Z " fill="#191718" transform="translate(69,253)"/>
<path d="M0 0 C1 3 1 3 0.0625 5.0625 C-1.48752481 9.34786271 -1.1576869 13.4884026 -1 18 C0.5778125 18.86625 0.5778125 18.86625 2.1875 19.75 C7.07562808 22.58412679 11.59219416 25.20893436 13.76953125 30.73046875 C14.30245032 35.97836672 11.80653318 41.15639655 10 46 C9.67 46.99 9.34 47.98 9 49 C8.34 49 7.68 49 7 49 C6.67 50.98 6.34 52.96 6 55 C2.95106884 53.87076624 1.35458426 52.3656342 -0.625 49.875 C-1.40875 48.92625 -2.1925 47.9775 -3 47 C-3.66 47 -4.32 47 -5 47 C-6.37562854 45.71034824 -7.70766393 44.37310707 -9 43 C-9.66 42.34 -10.32 41.68 -11 41 C-13.59047314 35.81905371 -13.40470355 31.76335119 -12.125 26.1875 C-11 23 -11 23 -9 22 C-9.33 21.01 -9.66 20.02 -10 19 C-9.34 19 -8.68 19 -8 19 C-7.87882813 18.40832031 -7.75765625 17.81664062 -7.6328125 17.20703125 C-5.22614126 5.85865072 -5.22614126 5.85865072 -1 2 C-0.67 1.34 -0.34 0.68 0 0 Z " fill="#201C1D" transform="translate(178,141)"/>
<path d="M0 0 C0.66 0.33 1.32 0.66 2 1 C2.33 8.59 2.66 16.18 3 24 C6.3 24 9.6 24 13 24 C11.68 23.01 10.36 22.02 9 21 C8.67 20.34 8.34 19.68 8 19 C7.34 18.67 6.68 18.34 6 18 C6.61259889 15.24330499 7.36745323 13.48727287 9.6328125 11.7421875 C13.90023632 9.34908316 17.26686101 8.46339288 22.1015625 9.37109375 C25.19194789 10.3948634 27.43367981 12.01110185 30 14 C28.6302836 17.99500618 26.74277578 20.80009492 24 24 C25.47906892 24.02689216 26.95827483 24.04634621 28.4375 24.0625 C29.67306641 24.07990234 29.67306641 24.07990234 30.93359375 24.09765625 C32.99163938 24.23267348 32.99163938 24.23267348 34 23 C34.15714654 21.36743242 34.25085414 19.72864662 34.31640625 18.08984375 C34.37924805 16.60581055 34.37924805 16.60581055 34.44335938 15.09179688 C34.48267578 14.05087891 34.52199219 13.00996094 34.5625 11.9375 C34.62727539 10.37032227 34.62727539 10.37032227 34.69335938 8.77148438 C34.79981225 6.18113116 34.9018276 3.59067814 35 1 C35.99 0.67 36.98 0.34 38 0 C41.15072211 3.15072211 40.58824238 6.82185374 40.8125 11.125 C40.87630859 11.95515625 40.94011719 12.7853125 41.00585938 13.640625 C41.33253797 19.51163744 40.71976858 23.73745429 38 29 C33.48811176 31.68758686 28.0904768 31.2381013 23.125 30.0625 C22.42632812 29.84722656 21.72765625 29.63195312 21.0078125 29.41015625 C18.61102501 28.92054013 17.34027035 29.32221679 15 30 C12.86194107 30.34405546 10.71429872 30.6312124 8.5625 30.875 C7.45003906 31.01679688 6.33757812 31.15859375 5.19140625 31.3046875 C2 31 2 31 -0.890625 29.30859375 C-4.17932226 24.15021119 -3.53006013 19.16203587 -3.3125 13.1875 C-3.28994141 12.01767578 -3.26738281 10.84785156 -3.24414062 9.64257812 C-3.18532091 6.76041231 -3.10317141 3.88086319 -3 1 C-2.01 0.67 -1.02 0.34 0 0 Z M14.125 15.5 C13.75375 15.995 13.3825 16.49 13 17 C15.475 18.98 15.475 18.98 18 21 C19.99983534 20.20882096 19.99983534 20.20882096 22 19 C22.33 18.01 22.66 17.02 23 16 C22.67 15.34 22.34 14.68 22 14 C17.74268432 13.59250325 17.74268432 13.59250325 14.125 15.5 Z " fill="#121011" transform="translate(140,252)"/>
<path d="M0 0 C3.95826719 0.56546674 6.759709 1.63546332 10 4 C10.66666667 5.33333333 11.33333333 6.66666667 12 8 C12.99 8.78375 13.98 9.5675 15 10.375 C18.36805105 13.32204467 19.32485944 14.61158634 20 19 C19.50930684 26.69774899 15.58363712 33.33984422 12 40 C8.16313764 38.71668085 6.13459619 37.40841861 3.625 34.25 C1.27148534 31.36772214 -0.99215146 29.18098978 -4 27 C-5.73828125 25.55078125 -5.73828125 25.55078125 -7 24 C-7.28123558 18.28154317 -5.36070918 14.04911277 -2.83984375 8.98046875 C-1.80479503 6.89821016 -1.80479503 6.89821016 -2 4 C-1.34 4 -0.68 4 0 4 C0 2.68 0 1.36 0 0 Z " fill="#201C1D" transform="translate(172,192)"/>
<path d="M0 0 C1 2 1 2 0.22265625 4.75 C-0.16019531 5.8225 -0.54304687 6.895 -0.9375 8 C-2.45329455 11.91303408 -2.45329455 11.91303408 -3 16 C-2.34 16 -1.68 16 -1 16 C-1 16.66 -1 17.32 -1 18 C-0.34 18 0.32 18 1 18 C1.33 18.99 1.66 19.98 2 21 C1.34 21.33 0.68 21.66 0 22 C0 21.01 0 20.02 0 19 C-0.66 19 -1.32 19 -2 19 C-2.59824627 32.81803853 -2.59824627 32.81803853 1 46 C0.34 46 -0.32 46 -1 46 C-1.33 44.35 -1.66 42.7 -2 41 C-4.16874252 41.50603992 -5.99967627 41.99983813 -8 43 C-8.33 41.68 -8.66 40.36 -9 39 C-9.99 39.66 -10.98 40.32 -12 41 C-12.40318248 43.56287112 -12.40318248 43.56287112 -12.25 46.4375 C-12.23453125 47.40558594 -12.2190625 48.37367188 -12.203125 49.37109375 C-12.09836677 52.10857454 -12.09836677 52.10857454 -11 55 C-11.33 55.99 -11.66 56.98 -12 58 C-12.66 57.67 -13.32 57.34 -14 57 C-15.42720606 49.43580786 -16.88467869 39.89431031 -13 33 C-10.15660629 26.11023831 -7.57297023 19.29286197 -6 12 C-5.34 12 -4.68 12 -4 12 C-4.0825 11.319375 -4.165 10.63875 -4.25 9.9375 C-3.90053135 5.83124335 -2.18150968 3.47678105 0 0 Z " fill="#211E1F" transform="translate(233,196)"/>
<path d="M0 0 C2.75573665 1.97054046 3.03543498 3.17338506 3.73046875 6.57421875 C3.89587685 7.94379783 4.04782105 9.31505821 4.1875 10.6875 C4.3102832 11.7403418 4.3102832 11.7403418 4.43554688 12.81445312 C4.63529273 14.54166726 4.81919988 16.27070003 5 18 C5.66 18 6.32 18 7 18 C8.65 13.05 10.3 8.1 12 3 C12.66 4.32 13.32 5.64 14 7 C13.01 7.495 13.01 7.495 12 8 C11.57391223 9.98840957 11.15101903 11.97752652 10.73828125 13.96875 C7.49846519 27.27085191 1.68282268 39.13427706 -5 51 C-5.99 51 -6.98 51 -8 51 C-8.33 51.99 -8.66 52.98 -9 54 C-10 52 -10 52 -9.43359375 49.890625 C-9.10488281 49.01921875 -8.77617187 48.1478125 -8.4375 47.25 C-8.06753906 46.26773438 -7.69757813 45.28546875 -7.31640625 44.2734375 C-5.90853381 40.77255588 -4.39877519 37.32689368 -2.875 33.875 C0.78604731 25.38802668 3.09625987 17.3343304 2 8 C1.33639787 6.66513879 0.66985454 5.33173463 0 4 C0 2.68 0 1.36 0 0 Z " fill="#100E0F" transform="translate(286,231)"/>
<path d="M0 0 C3.4375 1.5 3.4375 1.5 6 3 C6 3.66 6 4.32 6 5 C6.53625 5.226875 7.0725 5.45375 7.625 5.6875 C10.82460161 7.45570089 13.29037223 9.53670203 16 12 C16 12.66 16 13.32 16 14 C16.66 14 17.32 14 18 14 C18 14.66 18 15.32 18 16 C18.61875 16.268125 19.2375 16.53625 19.875 16.8125 C22 18 22 18 24 21 C22.35 20.67 20.7 20.34 19 20 C18.88785156 20.68449219 18.77570313 21.36898437 18.66015625 22.07421875 C17.89228607 25.47738305 16.71586052 28.56743098 15.4375 31.8125 C14.98246094 32.97394531 14.52742188 34.13539063 14.05859375 35.33203125 C13.70925781 36.21246094 13.35992187 37.09289062 13 38 C12.34 38 11.68 38 11 38 C11 36.68 11 35.36 11 34 C11.66 34 12.32 34 13 34 C12.9175 33.34 12.835 32.68 12.75 32 C13.10103641 27.78756306 14.96960773 24.65289323 17 21 C15.13036002 18.73701563 15.13036002 18.73701563 12.1875 18.5625 C7.98647331 19.13911151 6.75106677 20.87716745 4 24 C3.01 24.66 2.02 25.32 1 26 C1.99 22.535 1.99 22.535 3 19 C3.66 19 4.32 19 5 19 C5.33 18.34 5.66 17.68 6 17 C7.32 17 8.64 17 10 17 C10.33 16.34 10.66 15.68 11 15 C11.99 15 12.98 15 14 15 C13.21625 14.030625 12.4325 13.06125 11.625 12.0625 C11.18414062 11.51722656 10.74328125 10.97195312 10.2890625 10.41015625 C9.0333609 8.86733563 9.0333609 8.86733563 7 8 C7 7.34 7 6.68 7 6 C3.72843838 4.1125606 0.75003581 3.39893998 -3 3 C-3.99 3.33 -4.98 3.66 -6 4 C-8.1875 3.5625 -8.1875 3.5625 -10 3 C-10.33 3.66 -10.66 4.32 -11 5 C-11 4.01 -11 3.02 -11 2 C-7.33569986 -0.34515209 -4.27824017 -0.36881381 0 0 Z " fill="#100E0F" transform="translate(281,114)"/>
<path d="M0 0 C1.65 0.33 3.3 0.66 5 1 C5 10.57 5 20.14 5 30 C2.525 29.01 2.525 29.01 0 28 C-1.08266248 24.75201257 -1.03436186 22.64103173 -0.87890625 19.23828125 C-0.83056641 18.12001953 -0.78222656 17.00175781 -0.73242188 15.84960938 C-0.67634766 14.68236328 -0.62027344 13.51511719 -0.5625 12.3125 C-0.51029297 11.13365234 -0.45808594 9.95480469 -0.40429688 8.74023438 C-0.27453806 5.82655906 -0.13956868 2.91321922 0 0 Z " fill="#0C0B0C" transform="translate(184,253)"/>
<path d="M0 0 C0.66 0.66 1.32 1.32 2 2 C1.66226563 2.66386719 1.32453125 3.32773438 0.9765625 4.01171875 C0.53054688 4.89472656 0.08453125 5.77773437 -0.375 6.6875 C-0.81585938 7.55761719 -1.25671875 8.42773438 -1.7109375 9.32421875 C-2.92881021 11.85222725 -3.96076401 14.39437933 -5 17 C-6.25581019 19.87099662 -7.56123591 22.7176391 -8.875 25.5625 C-9.21402344 26.31724609 -9.55304688 27.07199219 -9.90234375 27.84960938 C-11.78935071 31.92138295 -13.5035184 35.04445389 -17 38 C-16.16541004 33.25475996 -13.59345162 29.15843414 -11.3515625 24.95703125 C-10.51031849 23.33315449 -9.74857936 21.66862104 -9 20 C-9.33 19.34 -9.66 18.68 -10 18 C-10.6496875 19.2065625 -10.6496875 19.2065625 -11.3125 20.4375 C-13 23 -13 23 -16 24 C-18.55859375 23.765625 -18.55859375 23.765625 -21.4375 23.25 C-22.38496094 23.09015625 -23.33242187 22.9303125 -24.30859375 22.765625 C-27.16316727 21.95358377 -28.84117177 21.02103069 -31 19 C-31 18.34 -31 17.68 -31 17 C-30.34 17 -29.68 17 -29 17 C-29 17.66 -29 18.32 -29 19 C-23.49803017 21.14711018 -18.68367887 21.89455962 -13 20 C-13 19.01 -13 18.02 -13 17 C-12.34 16.67 -11.68 16.34 -11 16 C-11 14.68 -11 13.36 -11 12 C-10.67 11.34 -10.34 10.68 -10 10 C-7.525 10.495 -7.525 10.495 -5 11 C-3.35 7.37 -1.7 3.74 0 0 Z " fill="#0F0C0D" transform="translate(273,234)"/>
<path d="M0 0 C0.66 0.33 1.32 0.66 2 1 C1.01 4.3 0.02 7.6 -1 11 C-0.34 11 0.32 11 1 11 C0.938125 10.071875 0.87625 9.14375 0.8125 8.1875 C1 5 1 5 2.1875 3.125 C4.56036279 1.65218861 6.25913944 1.77776806 9 2 C7 4 7 4 4 5 C3.20046862 8.28696233 2.90341064 9.71023192 4 13 C6.31 13.33 8.62 13.66 11 14 C10.34 11.36 9.68 8.72 9 6 C9.99 6.33 10.98 6.66 12 7 C12 9.64 12 12.28 12 15 C10.35 15 8.7 15 7 15 C7.95865509 17.33075929 7.95865509 17.33075929 11 19 C7.00329808 19.31346682 4.67325099 19.40395059 1.1875 17.3125 C-1.20432563 14.78399862 -2.22979416 13.38890572 -3 10 C-2.85754283 7.26787507 -2.45887437 4.70735876 -2 2 C-1.34 2 -0.68 2 0 2 C0 1.34 0 0.68 0 0 Z " fill="#121112" transform="translate(67,263)"/>
<path d="M0 0 C0.66 0 1.32 0 2 0 C2.05834353 3.22909006 2.09371115 6.45804338 2.125 9.6875 C2.14175781 10.59951172 2.15851563 11.51152344 2.17578125 12.45117188 C2.23818946 21.03230051 2.23818946 21.03230051 0 25 C-2.70078753 27.70078753 -4.24035172 27.29894358 -8 27.3125 C-9.0725 27.32925781 -10.145 27.34601563 -11.25 27.36328125 C-12.1575 27.24339844 -13.065 27.12351562 -14 27 C-14.66 26.01 -15.32 25.02 -16 24 C-11.05 23.67 -6.1 23.34 -1 23 C-1.01160156 21.42347656 -1.02320313 19.84695313 -1.03515625 18.22265625 C-1.04453243 16.16927201 -1.05363282 14.1158865 -1.0625 12.0625 C-1.07087891 11.02158203 -1.07925781 9.98066406 -1.08789062 8.90820312 C-1.09111328 7.91884766 -1.09433594 6.92949219 -1.09765625 5.91015625 C-1.10289307 4.99371338 -1.10812988 4.07727051 -1.11352539 3.13305664 C-1 1 -1 1 0 0 Z " fill="#1F1D1E" transform="translate(177,254)"/>
<path d="M0 0 C1.98 0.99 3.96 1.98 6 3 C5.01 3.495 5.01 3.495 4 4 C4.4640625 5.175625 4.4640625 5.175625 4.9375 6.375 C6.26335807 10.89851578 6.64811085 15.31431814 7 20 C7.66 20 8.32 20 9 20 C9.66 18.35 10.32 16.7 11 15 C12.39607277 18.74360914 11.57200275 21.02321534 10.1875 24.6875 C9.83042969 25.66074219 9.47335937 26.63398437 9.10546875 27.63671875 C8 30 8 30 6 31 C5.505 32.485 5.505 32.485 5 34 C5 32.68 5 31.36 5 30 C4.34 29.67 3.68 29.34 3 29 C3 25.7 3 22.4 3 19 C3.33 19 3.66 19 4 19 C4 16.69 4 14.38 4 12 C2.68 11.34 1.36 10.68 0 10 C0.99 9.34 1.98 8.68 3 8 C2.505 7.05125 2.01 6.1025 1.5 5.125 C0 2 0 2 0 0 Z " fill="#151415" transform="translate(343,81)"/>
<path d="M0 0 C0.99 0 1.98 0 3 0 C3.33 7.26 3.66 14.52 4 22 C7.3 22.66 10.6 23.32 14 24 C14 24.66 14 25.32 14 26 C9.71 26 5.42 26 1 26 C0.26093039 22.30465196 -0.12013116 19.58137867 -0.09765625 15.91796875 C-0.09443359 14.98662109 -0.09121094 14.05527344 -0.08789062 13.09570312 C-0.07951172 12.13599609 -0.07113281 11.17628906 -0.0625 10.1875 C-0.05798828 9.20845703 -0.05347656 8.22941406 -0.04882812 7.22070312 C-0.03708684 4.81373889 -0.02066419 2.40690143 0 0 Z " fill="#1C1C1C" transform="translate(138,255)"/>
<path d="M0 0 C0.66 0.66 1.32 1.32 2 2 C1.01 2.495 1.01 2.495 0 3 C-0.33 10.26 -0.66 17.52 -1 25 C-11 27 -11 27 -15 26 C-14.67 24.35 -14.34 22.7 -14 21 C-13.34 21 -12.68 21 -12 21 C-12 20.34 -12 19.68 -12 19 C-12.556875 19.515625 -13.11375 20.03125 -13.6875 20.5625 C-16 22 -16 22 -18.75 21.6875 C-19.4925 21.460625 -20.235 21.23375 -21 21 C-20.1028125 20.87625 -20.1028125 20.87625 -19.1875 20.75 C-16.38926857 19.79060637 -15.69589407 18.35950479 -14 16 C-13.01 15.67 -12.02 15.34 -11 15 C-10.67 14.34 -10.34 13.68 -10 13 C-10.99 12.67 -11.98 12.34 -13 12 C-12.34 11.67 -11.68 11.34 -11 11 C-9.68 11.99 -8.36 12.98 -7 14 C-8.3697164 17.99500618 -10.25722422 20.80009492 -13 24 C-11.52093108 24.02689216 -10.04172517 24.04634621 -8.5625 24.0625 C-7.32693359 24.07990234 -7.32693359 24.07990234 -6.06640625 24.09765625 C-4.00836062 24.23267348 -4.00836062 24.23267348 -3 23 C-2.84285346 21.36743242 -2.74914586 19.72864662 -2.68359375 18.08984375 C-2.64169922 17.10048828 -2.59980469 16.11113281 -2.55664062 15.09179688 C-2.51732422 14.05087891 -2.47800781 13.00996094 -2.4375 11.9375 C-2.39431641 10.89271484 -2.35113281 9.84792969 -2.30664062 8.77148438 C-2.20018775 6.18113116 -2.0981724 3.59067814 -2 1 C-1.34 0.67 -0.68 0.34 0 0 Z " fill="#0C0A0B" transform="translate(177,252)"/>
<path d="M0 0 C1.32 0 2.64 0 4 0 C5.42727587 4.28182762 5.22447769 8.38945436 5.25 12.875 C5.270625 13.77347656 5.29125 14.67195313 5.3125 15.59765625 C5.34189595 20.57292042 5.2291814 23.93802971 2 28 C1.34 27.67 0.68 27.34 0 27 C0.32669678 26.42636719 0.65339355 25.85273438 0.98999023 25.26171875 C2.06380993 22.85711017 2.22217936 21.41925124 2.16015625 18.8125 C2.14919922 18.03132813 2.13824219 17.25015625 2.12695312 16.4453125 C2.10568359 15.63835937 2.08441406 14.83140625 2.0625 14 C2.02790737 12.39592677 1.99780537 10.79174907 1.97265625 9.1875 C1.95468994 8.47980469 1.93672363 7.77210938 1.91821289 7.04296875 C2.0038251 4.90445249 2.41159437 3.05264482 3 1 C2.34 1 1.68 1 1 1 C1.02618408 1.65073486 1.05236816 2.30146973 1.0793457 2.97192383 C1.18323862 5.91853723 1.2482992 8.86476601 1.3125 11.8125 C1.3753418 13.34874023 1.3753418 13.34874023 1.43945312 14.91601562 C1.48500406 17.69462278 1.47812685 20.26168974 1 23 C-1.375 25.21875 -1.375 25.21875 -4 26 C-6.3125 25.6875 -6.3125 25.6875 -8 25 C-8 24.34 -8 23.68 -8 23 C-7.401875 22.855625 -6.80375 22.71125 -6.1875 22.5625 C-4.43849596 22.1127561 -2.71322977 21.57107659 -1 21 C-0.67 14.07 -0.34 7.14 0 0 Z " fill="#0A0909" transform="translate(130,253)"/>
<path d="M0 0 C1 2 1 2 0.22265625 4.75 C-0.16019531 5.8225 -0.54304687 6.895 -0.9375 8 C-2.45329455 11.91303408 -2.45329455 11.91303408 -3 16 C-2.34 16 -1.68 16 -1 16 C-1 16.66 -1 17.32 -1 18 C-0.34 18 0.32 18 1 18 C1.33 18.99 1.66 19.98 2 21 C1.34 21.33 0.68 21.66 0 22 C0 21.01 0 20.02 0 19 C-0.66 19 -1.32 19 -2 19 C-2.59824627 32.81803853 -2.59824627 32.81803853 1 46 C0.34 46 -0.32 46 -1 46 C-5.02514633 38.47472643 -5.15216858 30.28285263 -4.9375 21.875 C-4.74720386 18.7980017 -4.74720386 18.7980017 -7 16 C-6.625 13.8125 -6.625 13.8125 -6 12 C-5.34 12 -4.68 12 -4 12 C-4.0825 11.319375 -4.165 10.63875 -4.25 9.9375 C-3.90053135 5.83124335 -2.18150968 3.47678105 0 0 Z " fill="#0C0A0B" transform="translate(233,196)"/>
<path d="M0 0 C1.24546405 2.49092811 0.7767578 3.41080733 0 6 C-0.66 6 -1.32 6 -2 6 C-1.938125 6.639375 -1.87625 7.27875 -1.8125 7.9375 C-2.11372228 12.85746397 -3.79798493 17.59596985 -6 22 C-9.96480297 20.32258336 -12.84041677 17.87873138 -16 15 C-16.33 14.01 -16.66 13.02 -17 12 C-12.68380697 11.09661076 -10.49202386 11.10159523 -6 12 C-4.02 8.04 -2.04 4.08 0 0 Z " fill="#1B1818" transform="translate(305,177)"/>
<path d="M0 0 C0.66 0 1.32 0 2 0 C1.03644647 9.41002278 1.03644647 9.41002278 0 14 C0.78375 14.2475 1.5675 14.495 2.375 14.75 C5 16 5 16 6.3125 17.9375 C7 20 7 20 7 23 C7.53625 23.2475 8.0725 23.495 8.625 23.75 C11.56424252 25.29696975 14.25754408 27.13014369 17 29 C17.33 28.34 17.66 27.68 18 27 C17.67 28.98 17.34 30.96 17 33 C13.95106884 31.87076624 12.35458426 30.3656342 10.375 27.875 C9.59125 26.92625 8.8075 25.9775 8 25 C7.34 25 6.68 25 6 25 C4.62437146 23.71034824 3.29233607 22.37310707 2 21 C1.34 20.34 0.68 19.68 0 19 C-3.17798618 12.64402764 -2.06476415 7.58143573 0 1 C0 0.67 0 0.34 0 0 Z " fill="#111011" transform="translate(167,163)"/>
<path d="M0 0 C1.98 0.99 1.98 0.99 4 2 C4 2.66 4 3.32 4 4 C4.99 4 5.98 4 7 4 C7 4.66 7 5.32 7 6 C7.99 6.33 8.98 6.66 10 7 C13 10.44444444 13 10.44444444 13 13 C15.64 12.67 18.28 12.34 21 12 C20.39009109 15.55780196 19.4216319 18.6828589 18 22 C15.7522025 19.94766315 14.9977758 18.99332739 14 16 C13.34 15.67 12.68 15.34 12 15 C11.67 14.01 11.34 13.02 11 12 C8.99983534 10.79117904 8.99983534 10.79117904 7 10 C7 9.01 7 8.02 7 7 C6.401875 6.95875 5.80375 6.9175 5.1875 6.875 C3 6 3 6 1.25 2.9375 C0.8375 1.968125 0.425 0.99875 0 0 Z " fill="#141213" transform="translate(290,109)"/>
<path d="M0 0 C3.76068376 1.5042735 3.76068376 1.5042735 4.875 3.8125 C5.97022194 6.31264369 5.97022194 6.31264369 9 8.375 C12.36805105 11.32204467 13.32485944 12.61158634 14 17 C13.43971662 23.12950017 11.27828529 27.86401971 8 33 C7 30 7 30 7.9375 27.8125 C8.288125 27.214375 8.63875 26.61625 9 26 C8.34 25.67 7.68 25.34 7 25 C7.66 24.34 8.32 23.68 9 23 C10.97115583 20.19888381 10.99426054 18.88903715 10.8125 15.375 C10.34075097 11.73669952 10.34075097 11.73669952 7 10 C7 9.34 7 8.68 7 8 C6.01 8 5.02 8 4 8 C0 3.77142857 0 3.77142857 0 0 Z " fill="#0C0B0C" transform="translate(178,194)"/>
<path d="M0 0 C0.66 0 1.32 0 2 0 C2.66 0.99 3.32 1.98 4 3 C4.99 3.66 5.98 4.32 7 5 C7.639375 5.804375 8.27875 6.60875 8.9375 7.4375 C11.31440892 10.39062926 13.62311433 12.31155717 17 14 C17 14.66 17 15.32 17 16 C17.66 16.33 18.32 16.66 19 17 C19 17.66 19 18.32 19 19 C19.66 19 20.32 19 21 19 C21 19.66 21 20.32 21 21 C21.66 21 22.32 21 23 21 C25.42870746 23.02392288 26.71480435 25.13302508 28 28 C21.24352839 24.84992391 16.54256242 19.62586139 11.765625 14.03125 C9.9825645 11.97994146 8.1477133 10.00805481 6.25 8.0625 C5.69828125 7.49660156 5.1465625 6.93070312 4.578125 6.34765625 C2.92733264 4.7671139 2.92733264 4.7671139 0 4 C0 2.68 0 1.36 0 0 Z " fill="#0D0B0C" transform="translate(284,72)"/>
<path d="M0 0 C5.12605611 3.04792525 6.0854722 6.4704241 7.51953125 11.953125 C7.67808594 12.62859375 7.83664063 13.3040625 8 14 C7.67 14.33 7.34 14.66 7 15 C8.98 15 10.96 15 13 15 C13.20970559 10.85906302 13.20970559 10.85906302 12 7 C12.66 7 13.32 7 14 7 C14 6.01 14 5.02 14 4 C15.65 4.33 17.3 4.66 19 5 C19.625 8.375 19.625 8.375 20 12 C19.34 12.66 18.68 13.32 18 14 C17.67 11.69 17.34 9.38 17 7 C16.34 7 15.68 7 15 7 C15.01160156 7.63808594 15.02320312 8.27617187 15.03515625 8.93359375 C15.04417969 9.75988281 15.05320312 10.58617187 15.0625 11.4375 C15.07410156 12.26121094 15.08570312 13.08492188 15.09765625 13.93359375 C15 16 15 16 14 17 C12.1875 17.1328125 12.1875 17.1328125 10 17.125 C9.278125 17.12757813 8.55625 17.13015625 7.8125 17.1328125 C6 17 6 17 5 16 C4.8684967 14.58560896 4.76967538 13.16811225 4.6875 11.75 C4.27077768 7.38136097 3.04268535 5.23898763 0 2 C0 1.34 0 0.68 0 0 Z " fill="#0A0809" transform="translate(77,261)"/>
<path d="M0 0 C3.3 0.33 6.6 0.66 10 1 C10.75 3.25 10.75 3.25 11 6 C9.375 8.375 9.375 8.375 7 10 C4.25 9.75 4.25 9.75 2 9 C2 8.01 2 7.02 2 6 C1.01 5.67 0.02 5.34 -1 5 C-0.67 3.35 -0.34 1.7 0 0 Z M4 5 C3.67 5.99 3.34 6.98 3 8 C4.65 7.67 6.3 7.34 8 7 C6.68 6.34 5.36 5.68 4 5 Z " fill="#090909" transform="translate(69,253)"/>
<path d="M0 0 C0.99 0.99 1.98 1.98 3 3 C2.34 3 1.68 3 1 3 C0.73445313 3.84046875 0.46890625 4.6809375 0.1953125 5.546875 C-1.29481203 9.85167921 -3.11746528 13.98187532 -4.96484375 18.140625 C-6.49526964 21.4456241 -6.49526964 21.4456241 -7 25 C-7.66 25 -8.32 25 -9 25 C-7.77526616 29.49069074 -6.3817121 31.84373538 -3 35 C-3 35.66 -3 36.32 -3 37 C-3.66 37 -4.32 37 -5 37 C-5 36.34 -5 35.68 -5 35 C-5.66 35 -6.32 35 -7 35 C-7 34.34 -7 33.68 -7 33 C-7.66 33 -8.32 33 -9 33 C-10.5247281 29.50821653 -11.196313 27.69020451 -10.13671875 23.96484375 C-9.65847656 22.96582031 -9.18023437 21.96679688 -8.6875 20.9375 C-6.96067134 17.26148392 -5.62759525 14.02399305 -5 10 C-4.34 10 -3.68 10 -3 10 C-2.87625 9.278125 -2.7525 8.55625 -2.625 7.8125 C-2.0095069 5.04278106 -1.11555626 2.6029646 0 0 Z " fill="#0D0B0B" transform="translate(291,152)"/>
<path d="M0 0 C1 3 1 3 0.125 5.125 C-1.19458343 8.49726876 -1.41846121 11.51876421 -1.65625 15.109375 C-1.7696875 15.73328125 -1.883125 16.3571875 -2 17 C-2.66 17.33 -3.32 17.66 -4 18 C-4.99 17.67 -5.98 17.34 -7 17 C-7.33 18.65 -7.66 20.3 -8 22 C-8.66 21.01 -9.32 20.02 -10 19 C-9.34 19 -8.68 19 -8 19 C-7.87882813 18.40832031 -7.75765625 17.81664062 -7.6328125 17.20703125 C-5.22614126 5.85865072 -5.22614126 5.85865072 -1 2 C-0.67 1.34 -0.34 0.68 0 0 Z " fill="#181516" transform="translate(178,141)"/>
<path d="M0 0 C1.875 0.25 1.875 0.25 4 1 C5.25 3.0625 5.25 3.0625 6 5 C4.02 5 2.04 5 0 5 C-0.103125 5.86625 -0.20625 6.7325 -0.3125 7.625 C-1 11 -1 11 -2.625 13.75 C-4.56601422 18.33785178 -3.79118159 22.176652 -3 27 C-5.0625 25.4375 -5.0625 25.4375 -7 23 C-6.69854319 17.80615042 -5.23506283 13.8777152 -2.9375 9.25 C-0.63294832 4.82365951 -0.63294832 4.82365951 0 0 Z " fill="#0E0C0D" transform="translate(295,43)"/>
<path d="M0 0 C0.33 0 0.66 0 1 0 C1.2509727 2.9995773 1.47621839 5.99757711 1.6875 9 C1.76033203 9.83917969 1.83316406 10.67835938 1.90820312 11.54296875 C2.29953647 17.48202768 1.77566311 21.67599102 -1 27 C-5.33949856 29.5435782 -10.6861944 29.32364586 -15.5 28.25 C-19 27 -19 27 -21 25 C-19.68 25 -18.36 25 -17 25 C-16.67 25.33 -16.34 25.66 -16 26 C-13.98035801 26.07244053 -11.95832876 26.08377188 -9.9375 26.0625 C-8.83277344 26.05347656 -7.72804687 26.04445313 -6.58984375 26.03515625 C-5.73519531 26.02355469 -4.88054687 26.01195312 -4 26 C-3.5359375 25.071875 -3.5359375 25.071875 -3.0625 24.125 C-2.375 22.75 -1.6875 21.375 -1 20 C-0.84876169 18.4804236 -0.75118307 16.95527498 -0.68359375 15.4296875 C-0.64169922 14.53378906 -0.59980469 13.63789063 -0.55664062 12.71484375 C-0.51732422 11.77769531 -0.47800781 10.84054687 -0.4375 9.875 C-0.39431641 8.93011719 -0.35113281 7.98523438 -0.30664062 7.01171875 C-0.20040928 4.67462908 -0.09836824 2.3374317 0 0 Z " fill="#0D0B0C" transform="translate(179,254)"/>
<path d="M0 0 C0.89234608 2.47068321 1.14582224 3.62072197 0.1875 6.11328125 C-0.204375 6.83902344 -0.59625 7.56476563 -1 8.3125 C-3.03099506 12.61509581 -3.55458971 15.33623088 -2 20 C0.47661498 22.24850483 0.47661498 22.24850483 3 24 C3 24.99 3 25.98 3 27 C3.66 27 4.32 27 5 27 C4.67 27.66 4.34 28.32 4 29 C3.34 28.67 2.68 28.34 2 28 C2 27.34 2 26.68 2 26 C1.01 25.67 0.02 25.34 -1 25 C-1 24.34 -1 23.68 -1 23 C-1.66 23 -2.32 23 -3 23 C-4.96388937 20.45205432 -6.2844622 18.15330105 -7 15 C-5.90619006 11.00402096 -4.03935287 7.58836954 -2 4 C-1.32620332 2.67025557 -0.65664192 1.33829877 0 0 Z " fill="#0A090A" transform="translate(247,166)"/>
<path d="M0 0 C0.66 0 1.32 0 2 0 C0.90376755 4.75034063 0.06911105 8.09349211 -4 11 C-6.4375 11.5625 -6.4375 11.5625 -9 11 C-11.51896068 8.82453396 -13.5050985 6.989803 -15 4 C-12.525 4.495 -12.525 4.495 -10 5 C-10 5.66 -10 6.32 -10 7 C-9.34 6.67 -8.68 6.34 -8 6 C-2.35294118 4 -2.35294118 4 0 4 C0 2.68 0 1.36 0 0 Z " fill="#151214" transform="translate(274,157)"/>
<path d="M0 0 C1 3 1 3 0.1875 4.75 C-0.204375 5.4925 -0.59625 6.235 -1 7 C-1.33 8.155 -1.66 9.31 -2 10.5 C-2.79053064 13.26685723 -3.60609856 15.51089029 -5 18 C-5.99 18 -6.98 18 -8 18 C-8.33 18.99 -8.66 19.98 -9 21 C-10 19 -10 19 -9.44140625 17.0546875 C-9.15136719 16.33539063 -8.86132812 15.61609375 -8.5625 14.875 C-8.27503906 14.15054687 -7.98757813 13.42609375 -7.69140625 12.6796875 C-7.46324219 12.12539063 -7.23507812 11.57109375 -7 11 C-6.34 11 -5.68 11 -5 11 C-4.731875 10.29875 -4.46375 9.5975 -4.1875 8.875 C-2.9318551 5.8350176 -1.49764877 2.9272226 0 0 Z " fill="#111011" transform="translate(286,264)"/>
<path d="M0 0 C0.66 0.33 1.32 0.66 2 1 C1.67 9.25 1.34 17.5 1 26 C0.34 26 -0.32 26 -1 26 C-1.02886751 21.85418113 -1.04675327 17.70838784 -1.0625 13.5625 C-1.07087891 12.37849609 -1.07925781 11.19449219 -1.08789062 9.97460938 C-1.09111328 8.84990234 -1.09433594 7.72519531 -1.09765625 6.56640625 C-1.10289307 5.52427979 -1.10812988 4.48215332 -1.11352539 3.40844727 C-1 1 -1 1 0 0 Z " fill="#201E1F" transform="translate(186,254)"/>
<path d="M0 0 C2.31 0.33 4.62 0.66 7 1 C6.67 1.99 6.34 2.98 6 4 C6.33 4.99 6.66 5.98 7 7 C4.0719073 7.8356429 1.41823857 8.16205486 -1.625 8.1875 C-2.78902344 8.20876953 -2.78902344 8.20876953 -3.9765625 8.23046875 C-6 8 -6 8 -8 6 C-5.69 5.34 -3.38 4.68 -1 4 C-0.67 2.68 -0.34 1.36 0 0 Z " fill="#0F0E0E" transform="translate(96,275)"/>
<path d="M0 0 C2.45439784 0.36456537 3.65820269 0.55208914 5.1953125 2.56640625 C9.20078712 11.16639588 10.43566152 17.53239427 9 27 C8.01 27 7.02 27 6 27 C5.87470998 21.48723898 5.87470998 21.48723898 6.5625 18.8125 C7.37694373 15.43837598 5.26659532 12.12426847 4 9 C4.66 9 5.32 9 6 9 C5.38125 7.88625 4.7625 6.7725 4.125 5.625 C3.77695312 4.99851562 3.42890625 4.37203125 3.0703125 3.7265625 C1.99102726 1.8387386 1.99102726 1.8387386 0 0 Z " fill="#0D0B0C" transform="translate(328,108)"/>
<path d="M0 0 C3.3 0.33 6.6 0.66 10 1 C10.33 2.32 10.66 3.64 11 5 C9.125 6.0625 9.125 6.0625 7 7 C6.34 6.67 5.68 6.34 5 6 C3.33380554 5.9603287 1.66608987 5.95615553 0 6 C0 4.02 0 2.04 0 0 Z " fill="#0C0C0C" transform="translate(88,283)"/>
<path d="M0 0 C0.33 0.66 0.66 1.32 1 2 C1.928125 2.1546875 1.928125 2.1546875 2.875 2.3125 C5 3 5 3 6.6875 5.1875 C8.09918209 8.21253305 8.7780404 10.67060596 9 14 C8.34 14.66 7.68 15.32 7 16 C6.690625 15.21625 6.38125 14.4325 6.0625 13.625 C5.07124962 11.07669872 5.07124962 11.07669872 4 9 C3.34 9 2.68 9 2 9 C2 8.34 2 7.68 2 7 C1.34 6.67 0.68 6.34 0 6 C0.99 5.67 1.98 5.34 3 5 C3 5.66 3 6.32 3 7 C3.66 7 4.32 7 5 7 C2.47043472 3.9083091 -0.22454612 3.09068668 -4 2 C-2.68 1.34 -1.36 0.68 0 0 Z " fill="#0E0C0D" transform="translate(114,260)"/>
<path d="M0 0 C0 4.82442808 -1.86139609 8.76210476 -4 13 C-4.71658146 14.57961754 -5.42486392 16.16302488 -6.125 17.75 C-6.47820312 18.54921875 -6.83140625 19.3484375 -7.1953125 20.171875 C-7.46085937 20.77515625 -7.72640625 21.3784375 -8 22 C-8.99 22 -9.98 22 -11 22 C-10.525625 21.113125 -10.05125 20.22625 -9.5625 19.3125 C-7.93843518 16.21425675 -7.93843518 16.21425675 -7.5 13.5 C-6.86537605 10.32688023 -5.51523055 7.84863343 -4 5 C-3.649375 4.236875 -3.29875 3.47375 -2.9375 2.6875 C-2 1 -2 1 0 0 Z " fill="#0E0C0D" transform="translate(268,118)"/>
<path d="M0 0 C1.98 0.99 3.96 1.98 6 3 C5.01 3.495 5.01 3.495 4 4 C4.49113281 5.25683594 4.49113281 5.25683594 4.9921875 6.5390625 C6.09647136 10.3312931 6.19932952 13.43553543 6.125 17.375 C6.10695313 18.62023437 6.08890625 19.86546875 6.0703125 21.1484375 C6.04710937 22.08945313 6.02390625 23.03046875 6 24 C5.01 24 4.02 24 3 24 C3 22.35 3 20.7 3 19 C3.33 19 3.66 19 4 19 C4 16.69 4 14.38 4 12 C2.68 11.34 1.36 10.68 0 10 C0.99 9.34 1.98 8.68 3 8 C2.505 7.05125 2.01 6.1025 1.5 5.125 C0 2 0 2 0 0 Z " fill="#0B090B" transform="translate(343,81)"/>
<path d="M0 0 C1.9375 0.375 1.9375 0.375 4 1 C4.33 1.66 4.66 2.32 5 3 C4.01 3 3.02 3 2 3 C1.01 5.97 0.02 8.94 -1 12 C-1.66 12 -2.32 12 -3 12 C-3.13277344 12.61488281 -3.26554687 13.22976562 -3.40234375 13.86328125 C-3.57894531 14.67152344 -3.75554687 15.47976562 -3.9375 16.3125 C-4.11152344 17.11300781 -4.28554688 17.91351562 -4.46484375 18.73828125 C-5 21 -5 21 -6 24 C-7.1875 21.9375 -7.1875 21.9375 -8 19 C-6.75 15.25 -6.75 15.25 -5 12 C-4.34 11.67 -3.68 11.34 -3 11 C-2.64820803 8.6693782 -2.31669821 6.33564933 -2 4 C-0.9375 1.5625 -0.9375 1.5625 0 0 Z " fill="#0D0C0D" transform="translate(307,14)"/>
<path d="M0 0 C0.66 0 1.32 0 2 0 C0.5140084 4.59306496 -1.85014682 7.43569245 -5 11 C-3.5459375 12.1446875 -3.5459375 12.1446875 -2.0625 13.3125 C0.42086332 15.26748815 0.9521672 15.85650159 2 19 C-2.92980953 16.99155908 -6.09403383 13.35894926 -9 9 C-8.34 9 -7.68 9 -7 9 C-7 8.01 -7 7.02 -7 6 C-5.68 6.33 -4.36 6.66 -3 7 C-2.690625 6.030625 -2.38125 5.06125 -2.0625 4.0625 C-1 1 -1 1 0 0 Z " fill="#0A0809" transform="translate(257,142)"/>
<path d="M0 0 C1.875 0.25 1.875 0.25 4 1 C5.25 3.0625 5.25 3.0625 6 5 C5.35289062 5.24105469 4.70578125 5.48210937 4.0390625 5.73046875 C1.81328744 6.79508913 1.81328744 6.79508913 1.4609375 8.98828125 C1.43257813 9.75527344 1.40421875 10.52226562 1.375 11.3125 C1.13665113 14.91679995 0.59359053 17.70657957 -1 21 C-2 18 -2 18 -2 15 C-1.34 15 -0.68 15 0 15 C-0.37125 13.96875 -0.7425 12.9375 -1.125 11.875 C-2.08484785 7.62424521 -1.64608378 5.93231125 0 2 C0 1.34 0 0.68 0 0 Z " fill="#0F0D0E" transform="translate(315,138)"/>
<path d="M0 0 C1.5 1.375 1.5 1.375 3 3 C3 3.66 3 4.32 3 5 C2.34 5.66 1.68 6.32 1 7 C0.7183515 9.56656322 0.7183515 9.56656322 0.8125 12.4375 C0.81894531 13.40558594 0.82539063 14.37367188 0.83203125 15.37109375 C0.894768 18.10945962 0.894768 18.10945962 2 21 C1.67 21.99 1.34 22.98 1 24 C0.34 23.67 -0.32 23.34 -1 23 C-2.33322902 15.93388621 -4.09296839 6.13945259 0 0 Z " fill="#0C0B0B" transform="translate(220,230)"/>
<path d="M0 0 C2.475 0.495 2.475 0.495 5 1 C5.08797281 4.18732254 5.14071341 7.37432788 5.1875 10.5625 C5.22520508 11.90538086 5.22520508 11.90538086 5.26367188 13.27539062 C5.32655603 18.99784892 4.65798531 22.91424859 2 28 C1.34 27.34 0.68 26.68 0 26 C0.66 26 1.32 26 2 26 C3.47877779 18.05156936 4.23663993 8.8423957 2 1 C1.34 0.67 0.68 0.34 0 0 Z " fill="#0E0C0D" transform="translate(320,144)"/>
<path d="M0 0 C5.875 4.75 5.875 4.75 7 7 C7.99 7.66 8.98 8.32 10 9 C10 9.66 10 10.32 10 11 C10.62961258 12.55716683 11.30167451 14.09741299 12 15.625 C12.37125 16.44226563 12.7425 17.25953125 13.125 18.1015625 C13.41375 18.72804688 13.7025 19.35453125 14 20 C13.01 20 12.02 20 11 20 C10.67 18.88625 10.34 17.7725 10 16.625 C8.18578224 11.66908808 5.05254311 8.06836549 1.64453125 4.1015625 C0 2 0 2 0 0 Z " fill="#0D0B0C" transform="translate(321,108)"/>
<path d="M0 0 C1.24546405 2.49092811 0.7767578 3.41080733 0 6 C-0.66 6 -1.32 6 -2 6 C-1.938125 6.639375 -1.87625 7.27875 -1.8125 7.9375 C-2.11372228 12.85746397 -3.79798493 17.59596985 -6 22 C-7.32 21.34 -8.64 20.68 -10 20 C-9.53464844 19.59136719 -9.06929688 19.18273437 -8.58984375 18.76171875 C-6.80226804 16.78089161 -6.28867972 15.36089465 -5.5625 12.8125 C-4.15409568 8.24267746 -2.22877841 4.22699353 0 0 Z " fill="#0C0B0C" transform="translate(305,177)"/>
<path d="M0 0 C0.66 0.33 1.32 0.66 2 1 C-0.37432064 3.62424913 -2.94270891 5.24205762 -6 7 C-6.99 7.66 -7.98 8.32 -9 9 C-9.33 8.34 -9.66 7.68 -10 7 C-10.66 6.67 -11.32 6.34 -12 6 C-11.01 5.67 -10.02 5.34 -9 5 C-9 4.34 -9 3.68 -9 3 C-6.09399739 1.74335022 -4.20395416 1 -1 1 C-0.67 0.67 -0.34 0.34 0 0 Z " fill="#070707" transform="translate(82,105)"/>
<path d="M0 0 C0.99 0.33 1.98 0.66 3 1 C3 3.64 3 6.28 3 9 C1.35 9 -0.3 9 -2 9 C-1.04134491 11.33075929 -1.04134491 11.33075929 2 13 C-0.31 13 -2.62 13 -5 13 C-5.33 12.34 -5.66 11.68 -6 11 C-5.01 11 -4.02 11 -3 11 C-3.66 9.68 -4.32 8.36 -5 7 C-2.69 7.33 -0.38 7.66 2 8 C1.34 5.36 0.68 2.72 0 0 Z " fill="#080707" transform="translate(76,269)"/>
<path d="M0 0 C3.54433654 1.41773462 4.33806119 2.67612238 6 6 C8.0335948 7.26804566 8.0335948 7.26804566 10 8 C10 8.66 10 9.32 10 10 C11.65 9.34 13.3 8.68 15 8 C14.67 9.65 14.34 11.3 14 13 C7.43954396 11.40958642 3.56392398 5.34588597 0 0 Z " fill="#0E0B0D" transform="translate(170,219)"/>
<path d="M0 0 C0.33 0 0.66 0 1 0 C1.16435547 0.95712891 1.16435547 0.95712891 1.33203125 1.93359375 C1.49058594 2.75988281 1.64914063 3.58617187 1.8125 4.4375 C1.96332031 5.26121094 2.11414063 6.08492188 2.26953125 6.93359375 C2.51058594 7.61550781 2.75164062 8.29742187 3 9 C3.99 9.33 4.98 9.66 6 10 C4.25 10.625 4.25 10.625 2 11 C0.68 10.34 -0.64 9.68 -2 9 C-1.34 6.03 -0.68 3.06 0 0 Z " fill="#221E1F" transform="translate(119,269)"/>
<path d="M0 0 C3.88362391 4.41320899 5.07325904 8.58808715 4.8984375 14.34375 C4.65290558 17.57074089 4.3579065 20.78367811 4 24 C3.67 24 3.34 24 3 24 C2.86722656 22.77023438 2.73445313 21.54046875 2.59765625 20.2734375 C2.41935957 18.64061531 2.2409692 17.00780334 2.0625 15.375 C1.97548828 14.56675781 1.88847656 13.75851563 1.79882812 12.92578125 C1.32290463 8.58958942 0.77162811 4.29609164 0 0 Z " fill="#0C0B0B" transform="translate(296,210)"/>
<path d="M0 0 C-0.33 1.32 -0.66 2.64 -1 4 C-3.31 4.33 -5.62 4.66 -8 5 C-8.66 4.01 -9.32 3.02 -10 2 C-8.71211992 1.46987262 -7.41953322 0.9511671 -6.125 0.4375 C-5.40570313 0.14746094 -4.68640625 -0.14257812 -3.9453125 -0.44140625 C-2 -1 -2 -1 0 0 Z " fill="#151314" transform="translate(131,278)"/>
<path d="M0 0 C1.79133978 -0.05391993 3.58313899 -0.09275571 5.375 -0.125 C6.37273437 -0.14820313 7.37046875 -0.17140625 8.3984375 -0.1953125 C11 0 11 0 13 2 C12.40832031 1.94199219 11.81664062 1.88398438 11.20703125 1.82421875 C5.71348095 1.48229395 5.71348095 1.48229395 1.125 4.375 C0.42375 5.24125 -0.2775 6.1075 -1 7 C-1.99 7.66 -2.98 8.32 -4 9 C-3.34 6.69 -2.68 4.38 -2 2 C-1.34 2 -0.68 2 0 2 C0 1.34 0 0.68 0 0 Z " fill="#0F0C0D" transform="translate(286,131)"/>
<path d="M0 0 C3.5218253 1.95656961 6.34442785 3.95100975 9 7 C9 7.66 9 8.32 9 9 C10.32 9.66 11.64 10.32 13 11 C12.67 11.66 12.34 12.32 12 13 C7.09311891 10.07923745 3.27926501 6.72121132 0 2 C0 1.34 0 0.68 0 0 Z " fill="#0B0A0B" transform="translate(242,195)"/>
<path d="M0 0 C1.125 1.75 1.125 1.75 2 4 C1.125 6.25 1.125 6.25 0 8 C-0.66 8 -1.32 8 -2 8 C-2 8.66 -2 9.32 -2 10 C-2.66 10 -3.32 10 -4 10 C-4.8125 8.375 -4.8125 8.375 -5 6 C-3.53181864 3.75390165 -1.84147142 1.97621323 0 0 Z " fill="#070707" transform="translate(257,306)"/>
<path d="M0 0 C0.66 0 1.32 0 2 0 C2 1.32 2 2.64 2 4 C2.33 3.34 2.66 2.68 3 2 C3.66 2 4.32 2 5 2 C5.33 5.63 5.66 9.26 6 13 C5.01 13.495 5.01 13.495 4 14 C3.814375 12.6078125 3.814375 12.6078125 3.625 11.1875 C3.18466918 7.86074765 3.18466918 7.86074765 1 5 C0.61500109 3.34450469 0.27206865 1.6777567 0 0 Z " fill="#030303" transform="translate(22,215)"/>
<path d="M0 0 C0.33 1.32 0.66 2.64 1 4 C1.66 4 2.32 4 3 4 C3 3.01 3 2.02 3 1 C3.99 1.33 4.98 1.66 6 2 C4.68 4.97 3.36 7.94 2 11 C0 9 0 9 -0.1953125 6.8359375 C-0.17210937 6.02382812 -0.14890625 5.21171875 -0.125 4.375 C-0.10695313 3.55773437 -0.08890625 2.74046875 -0.0703125 1.8984375 C-0.04710937 1.27195313 -0.02390625 0.64546875 0 0 Z " fill="#0C0C0C" transform="translate(320,172)"/>
<path d="M0 0 C0.99 0.66 1.98 1.32 3 2 C3 2.66 3 3.32 3 4 C1.54119891 3.85892253 0.08296449 3.71197585 -1.375 3.5625 C-2.59316406 3.44068359 -2.59316406 3.44068359 -3.8359375 3.31640625 C-6 3 -6 3 -8 2 C-8 1.34 -8 0.68 -8 0 C-5.08931154 -1.45534423 -3.1172005 -0.69977971 0 0 Z " fill="#201E1F" transform="translate(116,263)"/>
<path d="M0 0 C1 2 1 2 0.00390625 5.0390625 C-0.47175781 6.22242188 -0.94742187 7.40578125 -1.4375 8.625 C-1.91058594 9.81351563 -2.38367188 11.00203125 -2.87109375 12.2265625 C-3.24363281 13.14179688 -3.61617188 14.05703125 -4 15 C-4.66 14.34 -5.32 13.68 -6 13 C-5.690625 12.278125 -5.38125 11.55625 -5.0625 10.8125 C-4.07439461 8.19692691 -3.4712246 5.74881018 -3 3 C-2.34 3 -1.68 3 -1 3 C-0.67 2.01 -0.34 1.02 0 0 Z " fill="#0F0D0D" transform="translate(311,162)"/>
<path d="M0 0 C0.66 0.99 1.32 1.98 2 3 C1.34 3 0.68 3 0 3 C0 3.66 0 4.32 0 5 C2.64 5 5.28 5 8 5 C8 5.33 8 5.66 8 6 C6.58376784 6.05447047 5.16691809 6.09300508 3.75 6.125 C2.96109375 6.14820313 2.1721875 6.17140625 1.359375 6.1953125 C-1.20731941 5.9828378 -2.7916067 5.28654105 -5 4 C-5 3.34 -5 2.68 -5 2 C-3.35 2 -1.7 2 0 2 C0 1.34 0 0.68 0 0 Z " fill="#181516" transform="translate(79,276)"/>
<path d="M0 0 C1.28497537 3.85492611 0.4052209 5.40346836 -0.9375 9.1875 C-1.31777344 10.27417969 -1.69804687 11.36085937 -2.08984375 12.48046875 C-2.39019531 13.31191406 -2.69054687 14.14335937 -3 15 C-3.99 14.67 -4.98 14.34 -6 14 C-4.02 9.38 -2.04 4.76 0 0 Z " fill="#0B0A0A" transform="translate(226,214)"/>
<path d="M0 0 C0.66 0 1.32 0 2 0 C1.52013969 5.56890517 0.70084819 10.67067568 -1 16 C-2.89147345 10.95607079 -1.46651688 5.02805786 0 0 Z " fill="#090809" transform="translate(167,163)"/>
<path d="M0 0 C1.32 0.33 2.64 0.66 4 1 C3.67 2.32 3.34 3.64 3 5 C4.32 5.33 5.64 5.66 7 6 C6.67 6.66 6.34 7.32 6 8 C4.35 7.67 2.7 7.34 1 7 C0.67 4.69 0.34 2.38 0 0 Z " fill="#101010" transform="translate(70,255)"/>
<path d="M0 0 C0.33 0 0.66 0 1 0 C1.33 4.29 1.66 8.58 2 13 C-1 10 -1 10 -1.328125 7.7734375 C-1.30234375 6.98195312 -1.2765625 6.19046875 -1.25 5.375 C-1.23453125 4.57835937 -1.2190625 3.78171875 -1.203125 2.9609375 C-1 1 -1 1 0 0 Z " fill="#0E0E0E" transform="translate(25,222)"/>
<path d="M0 0 C0.99 0.33 1.98 0.66 3 1 C3 1.66 3 2.32 3 3 C3.5775 3.20625 4.155 3.4125 4.75 3.625 C7.81410544 5.49750888 9.15539968 7.96958519 11 11 C10.01 10.67 9.02 10.34 8 10 C8 9.34 8 8.68 8 8 C6.68 7.34 5.36 6.68 4 6 C4 5.34 4 4.68 4 4 C2.68 3.34 1.36 2.68 0 2 C0 1.34 0 0.68 0 0 Z " fill="#0C0A0B" transform="translate(300,77)"/>
<path d="M0 0 C3.71134205 3.1994328 5.42930118 6.3705719 7 11 C6.6875 13.4375 6.6875 13.4375 6 15 C5.67 13.02 5.34 11.04 5 9 C4.01 8.67 3.02 8.34 2 8 C1.375 6.1875 1.375 6.1875 1 4 C0.814375 3.2575 0.62875 2.515 0.4375 1.75 C0.293125 1.1725 0.14875 0.595 0 0 Z " fill="#0E0C0D" transform="translate(351,56)"/>
<path d="M0 0 C0.66 0.66 1.32 1.32 2 2 C1.6390625 2.69867188 1.278125 3.39734375 0.90625 4.1171875 C0.4421875 5.02726563 -0.021875 5.93734375 -0.5 6.875 C-0.9640625 7.77992188 -1.428125 8.68484375 -1.90625 9.6171875 C-3.13905589 11.86596859 -3.13905589 11.86596859 -3 14 C-3.66 14 -4.32 14 -5 14 C-4.34580901 8.93001981 -2.1453591 4.58009223 0 0 Z " fill="#0A0708" transform="translate(273,234)"/>
<path d="M0 0 C1.98 0.99 1.98 0.99 4 2 C4 2.66 4 3.32 4 4 C4.61875 4.2475 5.2375 4.495 5.875 4.75 C8.35068687 6.20628639 8.95125002 7.37812506 10 10 C9.01 10.495 9.01 10.495 8 11 C7.67 9.68 7.34 8.36 7 7 C5.68 6.67 4.36 6.34 3 6 C3 5.01 3 4.02 3 3 C2.01 2.67 1.02 2.34 0 2 C0 1.34 0 0.68 0 0 Z " fill="#090809" transform="translate(254,196)"/>
<path d="M0 0 C4.51617599 -0.07654536 8.59085217 -0.10228696 13 1 C12.67 1.66 12.34 2.32 12 3 C10.56163249 2.88541307 9.12429034 2.75790884 7.6875 2.625 C6.88699219 2.55539062 6.08648437 2.48578125 5.26171875 2.4140625 C3 2 3 2 0 0 Z " fill="#111111" transform="translate(138,348)"/>
<path d="M0 0 C1.3303125 0.37125 1.3303125 0.37125 2.6875 0.75 C1.3675 2.07 0.0475 3.39 -1.3125 4.75 C-2.3025 4.09 -3.2925 3.43 -4.3125 2.75 C-6.46524948 3.05840599 -6.46524948 3.05840599 -8.3125 3.75 C-4.12788462 -0.31153846 -4.12788462 -0.31153846 0 0 Z " fill="#070707" transform="translate(230.3125,330.25)"/>
<path d="M0 0 C1 3 1 3 0.00390625 5.48046875 C-0.47175781 6.37378906 -0.94742187 7.26710938 -1.4375 8.1875 C-1.91058594 9.08855469 -2.38367188 9.98960937 -2.87109375 10.91796875 C-3.24363281 11.60503906 -3.61617188 12.29210937 -4 13 C-4.66 13 -5.32 13 -6 13 C-4.58707905 8.1725201 -2.57025846 4.2837641 0 0 Z " fill="#1E1C1D" transform="translate(286,264)"/>
<path d="M0 0 C0.66 0.33 1.32 0.66 2 1 C1.01 4.96 0.02 8.92 -1 13 C-3.78637633 8.8204355 -2.79562512 6.85331323 -2 2 C-1.34 2 -0.68 2 0 2 C0 1.34 0 0.68 0 0 Z " fill="#080808" transform="translate(67,263)"/>
<path d="M0 0 C0.99 0.99 1.98 1.98 3 3 C2 6 2 6 1 8 C-1 7 -1 7 -2.125 3.9375 C-2.41375 2.968125 -2.7025 1.99875 -3 1 C-2.01 0.67 -1.02 0.34 0 0 Z " fill="#070707" transform="translate(33,259)"/>
<path d="M0 0 C2.31 0 4.62 0 7 0 C6.34 0.66 5.68 1.32 5 2 C4.01 2 3.02 2 2 2 C2 2.66 2 3.32 2 4 C0.02 4 -1.96 4 -4 4 C-3.67 3.34 -3.34 2.68 -3 2 C-2.01 2 -1.02 2 0 2 C0 1.34 0 0.68 0 0 Z " fill="#111111" transform="translate(118,84)"/>
<path d="M0 0 C0.66 0 1.32 0 2 0 C1.75 2.875 1.75 2.875 1 6 C-1.0625 7.375 -1.0625 7.375 -3 8 C-2.45276317 4.62537285 -1.9451 2.91765 0 0 Z " fill="#0F0F0F" transform="translate(52,130)"/>
<path d="M0 0 C1.98 0.66 3.96 1.32 6 2 C6 2.99 6 3.98 6 5 C6.66 5 7.32 5 8 5 C7.67 5.66 7.34 6.32 7 7 C4.36 5.35 1.72 3.7 -1 2 C-0.67 1.34 -0.34 0.68 0 0 Z " fill="#0B090B" transform="translate(301,48)"/>
<path d="M0 0 C0.66 0.33 1.32 0.66 2 1 C1.2575 2.1446875 1.2575 2.1446875 0.5 3.3125 C-1.24368308 5.92363751 -1.24368308 5.92363751 -1 9 C-1.33 8.34 -1.66 7.68 -2 7 C-2.66 6.67 -3.32 6.34 -4 6 C-2.25 1.125 -2.25 1.125 0 0 Z " fill="#0B0A0B" transform="translate(150,264)"/>
<path d="M0 0 C0.33 0.66 0.66 1.32 1 2 C1.94875 2.309375 2.8975 2.61875 3.875 2.9375 C6.84689902 3.94794567 8.06088831 4.62997461 10 7 C5.75829427 7 3.24860292 5.16249237 0.1875 2.3125 C-0.204375 1.879375 -0.59625 1.44625 -1 1 C-0.67 0.67 -0.34 0.34 0 0 Z M6 8 C8 9 8 9 8 9 Z " fill="#080808" transform="translate(181,80)"/>
<path d="M0 0 C1.32 0.33 2.64 0.66 4 1 C4 1.66 4 2.32 4 3 C4.99 3.33 5.98 3.66 7 4 C7 4.99 7 5.98 7 7 C4.13302508 5.71480435 2.02392288 4.42870746 0 2 C0 1.34 0 0.68 0 0 Z " fill="#0A0809" transform="translate(320,66)"/>
<path d="M0 0 C2.875 0.625 2.875 0.625 6 2 C7.375 5.125 7.375 5.125 8 8 C4.63820226 6.55922954 2.40843732 4.75249979 0 2 C0 1.34 0 0.68 0 0 Z " fill="#0D0D0D" transform="translate(312,48)"/>
<path d="M0 0 C6.76923077 3.44615385 6.76923077 3.44615385 7.9375 6.25 C7.958125 6.8275 7.97875 7.405 8 8 C4.63820226 6.55922954 2.40843732 4.75249979 0 2 C0 1.34 0 0.68 0 0 Z " fill="#090808" transform="translate(274,185)"/>
<path d="M0 0 C0 0.66 0 1.32 0 2 C-3.13349732 3.04449911 -3.98968256 2.93423645 -7 2 C-7.33 2.66 -7.66 3.32 -8 4 C-8 3.01 -8 2.02 -8 1 C-4.93251126 -0.86240388 -3.40254489 -1.2151946 0 0 Z " fill="#151416" transform="translate(278,115)"/>
<path d="M0 0 C2.56695636 0.39491636 4.67123994 0.83561997 7 2 C6.67 2.99 6.34 3.98 6 5 C5.34 5 4.68 5 4 5 C3.67 4.34 3.34 3.68 3 3 C0.98330173 1.86649466 0.98330173 1.86649466 -1 1 C-0.67 0.67 -0.34 0.34 0 0 Z " fill="#1B1A1B" transform="translate(160,263)"/>
<path d="M0 0 C3.36179774 1.44077046 5.59156268 3.24750021 8 6 C8 6.66 8 7.32 8 8 C4.63820226 6.55922954 2.40843732 4.75249979 0 2 C0 1.34 0 0.68 0 0 Z " fill="#090909" transform="translate(282,193)"/>
<path d="M0 0 C0.625 1.8125 0.625 1.8125 1 4 C0.01 5.485 0.01 5.485 -1 7 C-1.99 7 -2.98 7 -4 7 C-3.67 5.02 -3.34 3.04 -3 1 C-2.01 1.33 -1.02 1.66 0 2 C0 1.34 0 0.68 0 0 Z " fill="#050505" transform="translate(31,176)"/>
<path d="M0 0 C1.98 0.99 3.96 1.98 6 3 C5.01 3.495 5.01 3.495 4 4 C4.33 5.65 4.66 7.3 5 9 C1.96130589 7.48065294 1.35589694 5.01995228 0 2 C0 1.34 0 0.68 0 0 Z " fill="#110F11" transform="translate(343,81)"/>
<path d="M0 0 C3.82946843 1.45255699 5.12050295 3.42895561 7 7 C4.13302508 5.71480435 2.02392288 4.42870746 0 2 C0 1.34 0 0.68 0 0 Z " fill="#090809" transform="translate(242,224)"/>
<path d="M0 0 C0.66 0.33 1.32 0.66 2 1 C2 3.64 2 6.28 2 9 C1.34 9 0.68 9 0 9 C-0.84454356 5.62182575 -1.10844919 3.32534757 0 0 Z " fill="#0C0C0C" transform="translate(24,210)"/>
<path d="M0 0 C0.33 0 0.66 0 1 0 C1 4.29 1 8.58 1 13 C0.67 13 0.34 13 0 13 C0 8.71 0 4.42 0 0 Z " fill="#000000" transform="translate(182,261)"/>
<path d="M0 0 C0.66 0.66 1.32 1.32 2 2 C1.34 2 0.68 2 0 2 C0 1.34 0 0.68 0 0 Z " fill="#000000" transform="translate(149,273)"/>
<path d="M0 0 C2 1 2 1 2 1 Z " fill="#000000" transform="translate(248,279)"/>
<path d="" fill="#000000" transform="translate(0,0)"/>
<path d="M0 0 C2 1 2 1 2 1 Z " fill="#000000" transform="translate(76,252)"/>
<path d="" fill="#000000" transform="translate(0,0)"/>
<path d="M0 0 C2 1 2 1 2 1 Z " fill="#000000" transform="translate(174,189)"/>
<path d="M0 0 C2 1 2 1 2 1 Z " fill="#000000" transform="translate(252,161)"/>
<path d="M0 0 C2 1 2 1 2 1 Z " fill="#000000" transform="translate(249,155)"/>
<path d="" fill="#000000" transform="translate(0,0)"/>
<path d="M0 0 C2 1 2 1 2 1 Z " fill="#000000" transform="translate(345,93)"/>
<path d="M0 0 C2 1 2 1 2 1 Z " fill="#000000" transform="translate(317,61)"/>
<path d="" fill="#000000" transform="translate(0,0)"/>
<path d="" fill="#000000" transform="translate(0,0)"/>
<path d="" fill="#000000" transform="translate(0,0)"/>
<path d="" fill="#000000" transform="translate(0,0)"/>
<path d="" fill="#000000" transform="translate(0,0)"/>
<path d="" fill="#000000" transform="translate(0,0)"/>
<path d="" fill="#000000" transform="translate(0,0)"/>
<path d="" fill="#000000" transform="translate(0,0)"/>
<path d="" fill="#000000" transform="translate(0,0)"/>
<path d="" fill="#000000" transform="translate(0,0)"/>
<path d="" fill="#000000" transform="translate(0,0)"/>
<path d="" fill="#000000" transform="translate(0,0)"/>
<path d="" fill="#000000" transform="translate(0,0)"/>
<path d="" fill="#000000" transform="translate(0,0)"/>
<path d="" fill="#000000" transform="translate(0,0)"/>
<path d="" fill="#000000" transform="translate(0,0)"/>
<path d="" fill="#000000" transform="translate(0,0)"/>
<path d="" fill="#000000" transform="translate(0,0)"/>
<path d="" fill="#000000" transform="translate(0,0)"/>
<path d="" fill="#000000" transform="translate(0,0)"/>
<path d="" fill="#000000" transform="translate(0,0)"/>
<path d="" fill="#000000" transform="translate(0,0)"/>
<path d="" fill="#000000" transform="translate(0,0)"/>
<path d="" fill="#000000" transform="translate(0,0)"/>
<path d="" fill="#000000" transform="translate(0,0)"/>
<path d="" fill="#000000" transform="translate(0,0)"/>
<path d="" fill="#000000" transform="translate(0,0)"/>
<path d="" fill="#000000" transform="translate(0,0)"/>
<path d="" fill="#000000" transform="translate(0,0)"/>
<path d="" fill="#000000" transform="translate(0,0)"/>
<path d="" fill="#000000" transform="translate(0,0)"/>
<path d="" fill="#000000" transform="translate(0,0)"/>
<path d="" fill="#000000" transform="translate(0,0)"/>
<path d="" fill="#000000" transform="translate(0,0)"/>
<path d="" fill="#000000" transform="translate(0,0)"/>
<path d="" fill="#000000" transform="translate(0,0)"/>
<path d="" fill="#000000" transform="translate(0,0)"/>
<path d="" fill="#000000" transform="translate(0,0)"/>
<path d="" fill="#000000" transform="translate(0,0)"/>
<path d="" fill="#000000" transform="translate(0,0)"/>
<path d="" fill="#000000" transform="translate(0,0)"/>
<path d="" fill="#000000" transform="translate(0,0)"/>
<path d="" fill="#000000" transform="translate(0,0)"/>
<path d="" fill="#000000" transform="translate(0,0)"/>
<path d="" fill="#000000" transform="translate(0,0)"/>
<path d="" fill="#000000" transform="translate(0,0)"/>
<path d="" fill="#000000" transform="translate(0,0)"/>
<path d="" fill="#000000" transform="translate(0,0)"/>
<path d="" fill="#000000" transform="translate(0,0)"/>
<path d="" fill="#000000" transform="translate(0,0)"/>
<path d="" fill="#000000" transform="translate(0,0)"/>
<path d="" fill="#000000" transform="translate(0,0)"/>
<path d="" fill="#000000" transform="translate(0,0)"/>
<path d="" fill="#000000" transform="translate(0,0)"/>
<path d="" fill="#000000" transform="translate(0,0)"/>
<path d="" fill="#000000" transform="translate(0,0)"/>
<path d="" fill="#000000" transform="translate(0,0)"/>
<path d="" fill="#000000" transform="translate(0,0)"/>
<path d="" fill="#000000" transform="translate(0,0)"/>
<path d="" fill="#000000" transform="translate(0,0)"/>
<path d="" fill="#000000" transform="translate(0,0)"/>
<path d="" fill="#000000" transform="translate(0,0)"/>
<path d="" fill="#000000" transform="translate(0,0)"/>
<path d="" fill="#000000" transform="translate(0,0)"/>
<path d="" fill="#000000" transform="translate(0,0)"/>
<path d="" fill="#000000" transform="translate(0,0)"/>
<path d="" fill="#000000" transform="translate(0,0)"/>
<path d="" fill="#000000" transform="translate(0,0)"/>
<path d="" fill="#000000" transform="translate(0,0)"/>
<path d="" fill="#000000" transform="translate(0,0)"/>
<path d="" fill="#000000" transform="translate(0,0)"/>
<path d="" fill="#000000" transform="translate(0,0)"/>
<path d="" fill="#000000" transform="translate(0,0)"/>
<path d="" fill="#000000" transform="translate(0,0)"/>
<path d="" fill="#000000" transform="translate(0,0)"/>
<path d="" fill="#000000" transform="translate(0,0)"/>
<path d="" fill="#000000" transform="translate(0,0)"/>
<path d="" fill="#000000" transform="translate(0,0)"/>
<path d="" fill="#000000" transform="translate(0,0)"/>
<path d="" fill="#000000" transform="translate(0,0)"/>
<path d="" fill="#000000" transform="translate(0,0)"/>
<path d="" fill="#000000" transform="translate(0,0)"/>
<path d="" fill="#000000" transform="translate(0,0)"/>
<path d="" fill="#000000" transform="translate(0,0)"/>
<path d="" fill="#000000" transform="translate(0,0)"/>
<path d="" fill="#000000" transform="translate(0,0)"/>
<path d="" fill="#000000" transform="translate(0,0)"/>
<path d="" fill="#000000" transform="translate(0,0)"/>
<path d="" fill="#000000" transform="translate(0,0)"/>
<path d="" fill="#000000" transform="translate(0,0)"/>
<path d="" fill="#000000" transform="translate(0,0)"/>
<path d="" fill="#000000" transform="translate(0,0)"/>
<path d="" fill="#000000" transform="translate(0,0)"/>
<path d="" fill="#000000" transform="translate(0,0)"/>
<path d="" fill="#000000" transform="translate(0,0)"/>
<path d="" fill="#000000" transform="translate(0,0)"/>
<path d="" fill="#000000" transform="translate(0,0)"/>
<path d="" fill="#000000" transform="translate(0,0)"/>
<path d="" fill="#000000" transform="translate(0,0)"/>
<path d="" fill="#000000" transform="translate(0,0)"/>
<path d="" fill="#000000" transform="translate(0,0)"/>
<path d="" fill="#000000" transform="translate(0,0)"/>
<path d="" fill="#000000" transform="translate(0,0)"/>
<path d="" fill="#000000" transform="translate(0,0)"/>
<path d="" fill="#000000" transform="translate(0,0)"/>
<path d="" fill="#000000" transform="translate(0,0)"/>
<path d="" fill="#000000" transform="translate(0,0)"/>
<path d="" fill="#000000" transform="translate(0,0)"/>
<path d="" fill="#000000" transform="translate(0,0)"/>
<path d="" fill="#000000" transform="translate(0,0)"/>
<path d="" fill="#000000" transform="translate(0,0)"/>
<path d="" fill="#000000" transform="translate(0,0)"/>
<path d="" fill="#000000" transform="translate(0,0)"/>
<path d="" fill="#000000" transform="translate(0,0)"/>
<path d="" fill="#000000" transform="translate(0,0)"/>
<path d="" fill="#000000" transform="translate(0,0)"/>
<path d="" fill="#000000" transform="translate(0,0)"/>
<path d="" fill="#000000" transform="translate(0,0)"/>
<path d="" fill="#000000" transform="translate(0,0)"/>
<path d="" fill="#000000" transform="translate(0,0)"/>
<path d="" fill="#000000" transform="translate(0,0)"/>
<path d="" fill="#000000" transform="translate(0,0)"/>
<path d="" fill="#000000" transform="translate(0,0)"/>
<path d="" fill="#000000" transform="translate(0,0)"/>
<path d="" fill="#000000" transform="translate(0,0)"/>
<path d="" fill="#000000" transform="translate(0,0)"/>
<path d="" fill="#000000" transform="translate(0,0)"/>
<path d="" fill="#000000" transform="translate(0,0)"/>
<path d="" fill="#000000" transform="translate(0,0)"/>
<path d="" fill="#000000" transform="translate(0,0)"/>
<path d="" fill="#000000" transform="translate(0,0)"/>
<path d="" fill="#000000" transform="translate(0,0)"/>
<path d="" fill="#000000" transform="translate(0,0)"/>
<path d="" fill="#000000" transform="translate(0,0)"/>
<path d="" fill="#000000" transform="translate(0,0)"/>
<path d="" fill="#000000" transform="translate(0,0)"/>
<path d="" fill="#000000" transform="translate(0,0)"/>
<path d="" fill="#000000" transform="translate(0,0)"/>
<path d="" fill="#000000" transform="translate(0,0)"/>
<path d="" fill="#000000" transform="translate(0,0)"/>
<path d="" fill="#000000" transform="translate(0,0)"/>
<path d="" fill="#000000" transform="translate(0,0)"/>
<path d="" fill="#000000" transform="translate(0,0)"/>
<path d="" fill="#000000" transform="translate(0,0)"/>
<path d="" fill="#000000" transform="translate(0,0)"/>
<path d="" fill="#000000" transform="translate(0,0)"/>
<path d="" fill="#000000" transform="translate(0,0)"/>
<path d="" fill="#000000" transform="translate(0,0)"/>
<path d="" fill="#000000" transform="translate(0,0)"/>
<path d="" fill="#000000" transform="translate(0,0)"/>
<path d="" fill="#000000" transform="translate(0,0)"/>
<path d="" fill="#000000" transform="translate(0,0)"/>
<path d="" fill="#000000" transform="translate(0,0)"/>
<path d="" fill="#000000" transform="translate(0,0)"/>
<path d="" fill="#000000" transform="translate(0,0)"/>
<path d="" fill="#000000" transform="translate(0,0)"/>
<path d="" fill="#000000" transform="translate(0,0)"/>
<path d="" fill="#000000" transform="translate(0,0)"/>
<path d="" fill="#000000" transform="translate(0,0)"/>
<path d="" fill="#000000" transform="translate(0,0)"/>
<path d="" fill="#000000" transform="translate(0,0)"/>
<path d="" fill="#000000" transform="translate(0,0)"/>
<path d="" fill="#000000" transform="translate(0,0)"/>
<path d="" fill="#000000" transform="translate(0,0)"/>
<path d="" fill="#000000" transform="translate(0,0)"/>
<path d="" fill="#000000" transform="translate(0,0)"/>
<path d="" fill="#000000" transform="translate(0,0)"/>
<path d="" fill="#000000" transform="translate(0,0)"/>
<path d="" fill="#000000" transform="translate(0,0)"/>
<path d="" fill="#000000" transform="translate(0,0)"/>
<path d="" fill="#000000" transform="translate(0,0)"/>
<path d="" fill="#000000" transform="translate(0,0)"/>
<path d="" fill="#000000" transform="translate(0,0)"/>
<path d="" fill="#000000" transform="translate(0,0)"/>
<path d="" fill="#000000" transform="translate(0,0)"/>
<path d="" fill="#000000" transform="translate(0,0)"/>
<path d="" fill="#000000" transform="translate(0,0)"/>
<path d="" fill="#000000" transform="translate(0,0)"/>
<path d="" fill="#000000" transform="translate(0,0)"/>
<path d="" fill="#000000" transform="translate(0,0)"/>
<path d="" fill="#000000" transform="translate(0,0)"/>
<path d="" fill="#240000" transform="translate(0,0)"/>
<path d="" fill="#000000" transform="translate(0,0)"/>
<path d="" fill="#000000" transform="translate(0,0)"/>
<path d="" fill="#000000" transform="translate(0,0)"/>
<path d="" fill="#000000" transform="translate(0,0)"/>
<path d="" fill="#000000" transform="translate(0,0)"/>
<path d="" fill="#000000" transform="translate(0,0)"/>
<path d="" fill="#000000" transform="translate(0,0)"/>
<path d="" fill="#000000" transform="translate(0,0)"/>
<path d="" fill="#000000" transform="translate(0,0)"/>
<path d="" fill="#000000" transform="translate(0,0)"/>
<path d="" fill="#000000" transform="translate(0,0)"/>
<path d="" fill="#000000" transform="translate(0,0)"/>
<path d="" fill="#000000" transform="translate(0,0)"/>
<path d="" fill="#000000" transform="translate(0,0)"/>
<path d="" fill="#000000" transform="translate(0,0)"/>
<path d="" fill="#000000" transform="translate(0,0)"/>
<path d="" fill="#000000" transform="translate(0,0)"/>
<path d="" fill="#000000" transform="translate(0,0)"/>
<path d="" fill="#000000" transform="translate(0,0)"/>
<path d="" fill="#000000" transform="translate(0,0)"/>
<path d="" fill="#000000" transform="translate(0,0)"/>
<path d="" fill="#000000" transform="translate(0,0)"/>
<path d="" fill="#000000" transform="translate(0,0)"/>
<path d="" fill="#000000" transform="translate(0,0)"/>
<path d="" fill="#000000" transform="translate(0,0)"/>
<path d="" fill="#000000" transform="translate(0,0)"/>
<path d="" fill="#000000" transform="translate(0,0)"/>
<path d="" fill="#000000" transform="translate(0,0)"/>
<path d="" fill="#000000" transform="translate(0,0)"/>
<path d="" fill="#000000" transform="translate(0,0)"/>
<path d="" fill="#000000" transform="translate(0,0)"/>
<path d="" fill="#000000" transform="translate(0,0)"/>
<path d="" fill="#000000" transform="translate(0,0)"/>
<path d="" fill="#000000" transform="translate(0,0)"/>
<path d="" fill="#000000" transform="translate(0,0)"/>
<path d="" fill="#000000" transform="translate(0,0)"/>
<path d="" fill="#000000" transform="translate(0,0)"/>
<path d="" fill="#000000" transform="translate(0,0)"/>
<path d="" fill="#000000" transform="translate(0,0)"/>
<path d="" fill="#000000" transform="translate(0,0)"/>
<path d="" fill="#000000" transform="translate(0,0)"/>
<path d="" fill="#000000" transform="translate(0,0)"/>
<path d="" fill="#000000" transform="translate(0,0)"/>
<path d="" fill="#000000" transform="translate(0,0)"/>
<path d="" fill="#000000" transform="translate(0,0)"/>
<path d="" fill="#000000" transform="translate(0,0)"/>
<path d="" fill="#000000" transform="translate(0,0)"/>
<path d="" fill="#000000" transform="translate(0,0)"/>
<path d="" fill="#000000" transform="translate(0,0)"/>
<path d="" fill="#000000" transform="translate(0,0)"/>
<path d="" fill="#000000" transform="translate(0,0)"/>
<path d="" fill="#000000" transform="translate(0,0)"/>
<path d="" fill="#000000" transform="translate(0,0)"/>
<path d="" fill="#000000" transform="translate(0,0)"/>
<path d="" fill="#000000" transform="translate(0,0)"/>
<path d="" fill="#000000" transform="translate(0,0)"/>
<path d="" fill="#000000" transform="translate(0,0)"/>
<path d="" fill="#000000" transform="translate(0,0)"/>
<path d="" fill="#000000" transform="translate(0,0)"/>
</svg>
